<svg width="39" height="30" viewBox="0 0 39 30" fill="none" xmlns="http://www.w3.org/2000/svg">
<path d="M32.9989 2.49318C30.5289 1.33099 27.8545 0.487459 25.0687 8.6224e-05C25.0443 -0.000702201 25.02 0.00392424 24.9975 0.0136403C24.9751 0.0233565 24.955 0.0379263 24.9387 0.0563219C24.6044 0.67491 24.2144 1.48095 23.9544 2.09954C20.9996 1.64965 17.9947 1.64965 15.0399 2.09954C14.7799 1.4622 14.3898 0.67491 14.037 0.0563219C14.0184 0.0188317 13.9627 8.6224e-05 13.907 8.6224e-05C11.1212 0.487459 8.46539 1.33099 5.97675 2.49318C5.95818 2.49318 5.93961 2.51193 5.92104 2.53067C0.869472 10.1599 -0.523424 17.583 0.163738 24.9311C0.163738 24.9685 0.18231 25.006 0.219454 25.0248C3.5624 27.4991 6.77535 28.9987 9.95115 29.9922C10.0069 30.011 10.0626 29.9922 10.0812 29.9547C10.824 28.9238 11.4926 27.8365 12.0684 26.6931C12.1055 26.6181 12.0684 26.5431 11.9941 26.5244C10.9355 26.112 9.93258 25.6246 8.94827 25.0623C8.87398 25.0248 8.87398 24.9123 8.92969 24.8561C9.13398 24.7061 9.33827 24.5374 9.54257 24.3875C9.57971 24.35 9.63543 24.35 9.67257 24.3687C16.0613 27.3117 22.9515 27.3117 29.266 24.3687C29.3031 24.35 29.3588 24.35 29.396 24.3875C29.6003 24.5562 29.8046 24.7061 30.0088 24.8748C30.0831 24.9311 30.0831 25.0435 29.9903 25.081C29.0245 25.6621 28.0031 26.1307 26.9445 26.5431C26.8702 26.5619 26.8516 26.6556 26.8702 26.7118C27.4645 27.8553 28.1331 28.9425 28.8574 29.9735C28.9131 29.9922 28.9688 30.011 29.0245 29.9922C32.2189 28.9987 35.4318 27.4991 38.7748 25.0248C38.8119 25.006 38.8305 24.9685 38.8305 24.9311C39.6477 16.4395 37.4748 9.07271 33.0732 2.53067C33.0546 2.51193 33.0361 2.49318 32.9989 2.49318ZM13.0341 20.451C11.1212 20.451 9.524 18.6702 9.524 16.477C9.524 14.2838 11.084 12.5031 13.0341 12.5031C15.0027 12.5031 16.5628 14.3026 16.5442 16.477C16.5442 18.6702 14.9841 20.451 13.0341 20.451ZM25.9787 20.451C24.0658 20.451 22.4686 18.6702 22.4686 16.477C22.4686 14.2838 24.0287 12.5031 25.9787 12.5031C27.9474 12.5031 29.5074 14.3026 29.4888 16.477C29.4888 18.6702 27.9474 20.451 25.9787 20.451Z" fill="#DCF6F5"/>
</svg>
