<svg width="170" height="127" viewBox="0 0 170 127" fill="none" xmlns="http://www.w3.org/2000/svg">
<mask id="path-1-outside-1_17_36095" maskUnits="userSpaceOnUse" x="0" y="0" width="170" height="127" fill="black">
<rect fill="white" width="170" height="127"/>
<path d="M35.6988 2C35.8693 2.08444 36.0505 2.12666 36.2423 2.12666L36.2743 2.50664C35.2725 6.62308 34.4305 9.70514 33.7485 11.7528C33.7698 11.8372 33.4927 13.4416 32.9172 16.5659L33.0451 16.8192L32.9492 17.0725H33.077C32.9918 17.9803 32.7467 19.078 32.3417 20.3657V20.4923L32.5335 21.1256H32.4056C32.5122 21.2945 32.5655 21.4212 32.5655 21.5056C32.4376 21.8223 32.2991 22.5822 32.1498 23.7855C32.0646 23.7855 32.022 23.8277 32.022 23.9122V24.0388C32.4909 23.6166 32.7893 23.11 32.9172 22.5189C32.9172 22.4345 32.8746 22.3922 32.7893 22.3922C33.4074 20.6401 34.1854 19.3313 35.1233 18.4658H35.6348L35.8267 19.0991C35.8693 19.7324 35.6775 21.0412 35.2512 23.0255L35.379 24.2921L35.2831 24.5455H35.411C35.2831 25.031 35.102 26.3398 34.8675 28.4719C35.1659 28.3452 35.6135 27.6275 36.2103 26.3187C36.3169 26.3187 36.5514 26.1076 36.9137 25.6854H37.1695C37.6384 25.6854 37.9475 25.8543 38.0967 26.192L38.1606 26.952C38.0541 27.6486 37.3613 30.3929 36.0824 35.1849C36.1038 35.5226 36.0291 35.6915 35.8586 35.6915L36.0185 35.9448C35.102 38.3725 34.5051 40.3146 34.228 41.7712C34.3986 41.7712 34.8249 41.3068 35.5069 40.3779C36.0824 39.3647 36.594 38.858 37.0416 38.858H37.2974L37.3294 39.1113C37.3507 39.3224 36.8285 40.6313 35.7627 43.0378C34.7609 44.3044 34.3026 45.4443 34.3879 46.4576C34.6863 46.9431 34.8568 47.3653 34.8995 47.7242C34.7716 48.3575 34.26 49.3708 33.3648 50.764L32.8532 52.1573H32.9811C32.4909 53.065 32.0859 54.2472 31.7662 55.7038H31.8941C31.6809 56.1893 31.4145 57.4981 31.0948 59.6302C30.434 60.9179 29.8159 62.6912 29.2404 64.9499L29.0166 65.0766H28.7608L28.6968 64.3166L29.2404 60.6435C29.3256 60.6435 29.3683 60.6013 29.3683 60.5169V60.3902C29.3469 60.3058 29.2937 60.2635 29.2084 60.2635C29.2084 60.0947 29.4322 59.1658 29.8798 57.477C29.9864 56.9282 30.0397 56.5904 30.0397 56.4637C29.4215 57.1815 29.1551 58.0681 29.2404 59.1236C28.4304 60.5802 28.0254 61.7201 28.0254 62.5434C27.8975 62.5645 27.5778 63.3245 27.0663 64.8233H26.9384L27.0982 65.0766C27.0982 65.1188 27.0343 65.4144 26.9064 65.9632L27.0663 66.2165C26.171 68.032 25.4783 70.3119 24.9881 73.0562C25.0094 73.4784 24.2953 76.476 22.8459 82.049C22.5475 83.6534 22.4303 84.8355 22.4942 85.5955H22.6221C22.7926 85.6166 22.8885 85.7011 22.9099 85.8488C22.5688 86.7988 22.409 87.3476 22.4303 87.4954C22.5795 87.4954 23.4214 86.4821 24.9561 84.4556C27.8975 80.8035 29.656 78.4814 30.2315 77.4893L33.7165 73.5628V73.4362L33.3328 73.6895C33.3328 73.605 33.2902 73.5628 33.2049 73.5628C31.585 75.0405 30.1889 76.1382 29.0166 76.856C28.846 76.7715 28.7182 76.7293 28.6329 76.7293L28.6009 76.3493C30.7964 74.2383 32.3417 72.4229 33.2369 70.903C33.4927 70.8819 34.5051 69.8264 36.2743 67.7365C37.2761 66.871 37.9368 66.1954 38.2566 65.7099C39.0452 65.0133 39.9937 63.6622 41.1021 61.6568C42.8499 59.9258 43.9263 58.5325 44.3313 57.477C46.6546 55.0071 48.1466 53.065 48.8074 51.6507C49.5321 50.3841 50.3208 49.2019 51.1733 48.1042C52.1965 46.7743 53.2409 45.5921 54.3066 44.5577C55.3084 43.1222 56.5873 41.6445 58.1433 40.1246C58.6975 39.0058 59.9551 37.7814 61.916 36.4515C62.0652 35.9448 62.3743 35.6915 62.8432 35.6915L63.1629 36.0715C63.1629 36.2193 62.8859 36.5148 62.3317 36.9581C60.9675 38.5203 60.1362 39.7024 59.8378 40.5046C59.6886 40.5046 59.3796 40.8846 58.9106 41.6445C58.1859 42.2567 57.685 42.89 57.4079 43.5444C56.5767 44.5366 55.8946 45.4654 55.3617 46.3309H55.4896C55.5749 46.3309 56.161 45.6977 57.2481 44.4311C57.8449 43.7344 58.7295 43.1433 59.9018 42.6578C60.5199 42.0878 61.202 41.159 61.948 39.8713C62.2677 39.7024 63.0777 38.7736 64.3779 37.0848C65.5715 36.1982 66.6479 34.8893 67.6071 33.1583C69.2057 31.2584 70.3887 30.0763 71.156 29.6118C71.4971 29.1474 72.0512 28.683 72.8186 28.2186C74.4172 26.6565 75.3977 25.7698 75.76 25.5587V25.4321H75.3764C74.1827 26.1709 73.4687 26.7198 73.2342 27.0787C72.4242 27.0787 71.1027 27.6275 69.2696 28.7252H69.0139C68.822 28.5141 68.7261 28.3875 68.7261 28.3452C69.7705 27.6275 70.8043 26.7409 71.8274 25.6854C71.9766 25.6854 72.2218 25.5587 72.5628 25.3054H72.6907L72.5308 25.0521L72.7866 24.9254V25.1788C73.2555 24.7777 73.9483 24.3132 74.8648 23.7855C75.419 23.4477 75.6854 23.1522 75.6641 22.8989L75.9199 23.0255C75.9199 22.8355 76.5593 22.3289 77.8382 21.5056C78.2219 20.5768 79.2024 19.5635 80.7797 18.4658C83.2948 15.6793 84.8295 14.286 85.3837 14.286C85.6821 13.716 86.6306 12.8716 88.2292 11.7528C88.826 11.3306 89.2843 11.1195 89.604 11.1195C89.7745 11.1406 89.8598 11.2251 89.8598 11.3728L89.8918 11.6261C87.3127 14.2016 86.0444 15.8059 86.0871 16.4392C85.9592 16.4392 85.8419 16.5659 85.7354 16.8192L85.7673 16.9459H85.8952L88.6768 15.1726C90.1475 13.3994 91.4158 12.3017 92.4815 11.8795C95.7427 9.51515 97.5544 8.33299 97.9168 8.33299C98.0447 8.33299 98.1832 8.45965 98.3324 8.71297L98.3644 8.96629C97.5331 10.2329 97.1282 10.9506 97.1495 11.1195C99.3023 9.85291 100.56 9.21961 100.922 9.21961C101.114 9.43071 101.221 9.59959 101.242 9.72625C100.645 11.3939 99.7605 12.5339 98.5882 13.1461C98.6095 13.2305 98.4284 13.5683 98.0447 14.1593H98.4284C99.2596 13.8638 100.176 13.1038 101.178 11.8795C103.096 10.7606 104.62 9.66292 105.75 8.58631C105.942 8.58631 106.581 8.16411 107.668 7.31971L111.921 4.91318L112.656 4.40654C113.082 4.51209 113.306 4.63875 113.327 4.78652L113.359 5.1665C112.912 5.1665 111.441 6.34866 108.947 8.71297C108.18 9.47293 107.7 9.85291 107.508 9.85291C107.018 10.5284 106.709 10.8662 106.581 10.8662C105.516 11.7317 104.066 13.1672 102.233 15.1726C101.721 16.0381 100.901 16.9248 99.7712 17.8325C97.9594 19.3946 95.8706 21.7589 93.5046 24.9254C92.6307 26.5087 90.8083 28.5775 88.0374 31.1318C88.0374 31.0473 87.9947 31.0051 87.9095 31.0051C87.9308 31.2795 87.5791 31.7017 86.8544 32.2717C86.8544 32.3773 86.4814 32.9261 85.7354 33.9183C85.6927 34.1505 85.4156 34.446 84.9041 34.8049C84.9254 35.1216 83.8383 36.3459 81.6429 38.478C80.4919 39.998 79.8312 40.7579 79.6606 40.7579C79.682 40.8846 79.1064 41.5179 77.9341 42.6578C77.9768 43.1433 76.8471 44.4099 74.5451 46.4576C74.5664 46.6265 74.1507 47.2598 73.2982 48.3575C73.3195 48.5264 73.2022 48.6108 72.9465 48.6108V48.7375H73.2022C73.2236 48.6108 73.895 47.9775 75.2165 46.8376V46.7109C75.3018 46.7109 75.3444 46.7531 75.3444 46.8376C75.5149 46.8376 76.4208 45.9087 78.062 44.0511C78.2112 44.0511 78.7974 43.5444 79.8205 42.5312L82.3783 40.8846C82.3996 41.0535 82.5381 41.1379 82.7939 41.1379V41.2646C81.0887 42.6789 78.7548 45.2121 75.792 48.8641C74.5557 50.0463 73.5113 51.2707 72.6587 52.5373C72.4882 52.5373 71.7102 53.4239 70.3247 55.1971C67.6604 57.7726 66.3389 59.1236 66.3602 59.2503C65.8486 59.7358 65.1559 60.5802 64.282 61.7835C63.6425 62.6279 62.8645 64.0211 61.948 65.9632C61.3938 67.1243 60.2535 68.6864 58.527 70.6496C57.0562 73.014 56.0971 74.7028 55.6495 75.716C54.2214 77.7215 52.5375 79.8747 50.5978 82.1757C50.5552 82.8723 50.0756 83.6745 49.1591 84.5822H48.7754C48.7541 84.4133 48.7008 84.3289 48.6156 84.3289C48.9779 82.9568 49.6813 81.268 50.7257 79.2625L50.6938 79.0092C48.9673 80.5713 48.1147 81.5424 48.136 81.9224C47.4539 83.0412 46.6866 83.97 45.834 84.7089C43.1483 88.6565 41.2406 91.2319 40.1109 92.4351C40.1323 92.7096 39.5354 93.6384 38.3205 95.2217L38.0008 95.855H38.1287C40.452 93.7228 41.7948 92.5829 42.1572 92.4351C42.1785 92.5196 42.2318 92.5618 42.317 92.5618L42.2851 92.4351C42.4769 92.5196 42.6154 92.5618 42.7007 92.5618L42.7327 93.0684C42.4343 93.0684 42.0826 93.4484 41.6776 94.2084C41.5497 94.2084 41.3685 94.5461 41.1341 95.2217C39.0452 97.7549 37.8729 99.0214 37.6171 99.0214L37.777 99.2748C36.2849 100.964 35.3897 101.892 35.0913 102.061C35.1126 102.251 34.633 102.631 33.6525 103.201C33.141 103.771 32.6934 104.447 32.3097 105.228C32.1179 105.228 31.1161 106.494 29.3043 109.028C27.6844 110.885 26.8744 111.856 26.8744 111.941C26.2137 112.447 25.425 113.63 24.5085 115.487C22.6967 117.092 21.8228 118.274 21.8867 119.034H21.7589C21.5244 118.865 21.3859 118.78 21.3432 118.78H21.2153C21.2366 119.118 21.0874 119.371 20.7677 119.54L20.6079 119.287C21.5031 116.775 22.6115 114.284 23.933 111.814H23.8051C21.3326 114.305 20.107 115.952 20.1283 116.754C19.297 118.063 18.7641 118.78 18.5297 118.907C18.2739 119.35 17.6451 119.857 16.6433 120.427C16.2596 120.828 15.6308 122.01 14.7569 123.973C13.7765 125.219 13.2862 125.894 13.2862 126H12.7747C12.5189 126 12.2844 125.282 12.0713 123.847H11.9434C12.9452 121.609 13.3821 119.836 13.2542 118.527C13.4887 117.809 13.6805 117.007 13.8297 116.121H13.7018C13.2969 116.142 12.5295 117.577 11.3998 120.427C11.2506 120.427 10.9949 120.511 10.6325 120.68C10.121 120.533 9.84386 120.237 9.80123 119.794C10.1849 116.479 10.3554 114.537 10.3128 113.967L10.2808 113.841L9.0339 114.221C8.75681 114.221 8.46906 113.756 8.17065 112.827H8.29854C8.27722 112.743 8.22393 112.701 8.13868 112.701C8.24525 111.687 8.33051 111.181 8.39445 111.181C8.24525 110.653 8.08539 110.231 7.91487 109.914C7.74435 109.914 7.05162 110.336 5.83667 111.181H5.70878C5.26117 111.181 4.94145 110.505 4.74961 109.154V109.028C4.62173 107.571 4.6537 106.431 4.84553 105.608L4.20609 102.695C4.20609 101.808 4.18477 101.09 4.14214 100.541H4.27003C3.95031 99.1903 3.46007 98.5148 2.79931 98.5148C2.47958 98.4304 2.21315 98.2615 2 98.0082C2.55419 94.8206 2.88457 92.2874 2.99114 90.4086C3.56664 89.4375 3.96097 88.2131 4.17411 86.7354H4.04623C4.19543 85.3633 4.44055 84.2234 4.78159 83.3156C4.76027 83.0623 5.11197 81.2468 5.83667 77.8693C6.11376 75.716 6.67861 73.9006 7.5312 72.4229C7.87224 72.4229 8.47971 70.6496 9.35362 67.1032C9.92912 65.8788 10.4727 63.81 10.9842 60.8968L11.24 60.7702H11.4958C11.6237 60.7702 11.7622 60.8968 11.9114 61.1502L11.7835 61.4035H11.9114L11.6237 62.1634L11.7515 62.4168C11.5384 62.4168 11.4318 62.6279 11.4318 63.0501H11.5597C10.8989 66.1321 10.5792 67.8631 10.6005 68.2431L10.6325 68.3698H10.7604L11.7515 65.2033C12.6041 63.1767 13.0091 61.9946 12.9665 61.6568L12.7427 60.5169C12.8493 59.8836 12.9025 59.5036 12.9025 59.3769H12.7747L12.8706 59.1236V58.9969C12.8493 58.9125 12.796 58.8703 12.7107 58.8703C12.7107 58.6803 13.1903 57.3292 14.1495 54.8172C14.725 53.1706 15.3431 50.0041 16.0039 45.3177C16.0891 45.3177 16.1531 45.0644 16.1957 44.5577H16.0678C16.0891 43.9455 16.2383 43.1856 16.5154 42.2778H16.2596C16.0678 43.65 15.7587 44.4944 15.3324 44.811V44.9377L15.4923 45.191C15.2152 45.191 15.0553 45.8665 15.0127 47.2176C14.5438 48.2308 14.1281 49.2863 13.7658 50.3841C13.6379 51.144 13.4567 51.524 13.2223 51.524L12.6787 51.2707L13.3182 48.2308L13.1583 47.9775C13.542 46.4576 13.8617 44.6844 14.1175 42.6578C14.0322 42.6578 13.9789 42.6156 13.9576 42.5312C14.9168 40.8424 15.3538 39.4491 15.2685 38.3514C15.8866 37.5703 16.1317 36.5148 16.0039 35.1849C17.3041 32.3984 18.0714 30.4985 18.3059 29.4852C18.9666 28.5563 19.5847 26.7831 20.1602 24.1655C20.48 22.9622 21.226 21.2734 22.3983 19.0991C23.5706 15.637 24.3166 13.5683 24.6364 12.8927C25.8726 11.3728 26.5334 10.6129 26.6186 10.6129H26.8744C27.2368 10.7817 27.4286 11.0351 27.4499 11.3728C27.5139 11.9428 27.2368 13.1672 26.6186 15.046L26.6826 15.5526H26.8105L26.7146 15.8059L26.7465 16.3126C26.7465 16.397 26.7892 16.4392 26.8744 16.4392L26.7785 16.6925L26.9703 17.3258C26.8851 17.3258 26.8425 17.3681 26.8425 17.4525H26.9703C27.1195 16.6714 27.9828 15.3626 29.5601 13.526C29.7732 11.605 30.4127 10.1696 31.4784 9.21961C31.7982 9.21961 32.3523 8.16411 33.141 6.05312C33.5673 5.01873 34.4199 3.66769 35.6988 2Z"/>
<path d="M134.557 11.8161C134.642 11.8161 134.696 11.8584 134.717 11.9428L135.388 11.8161H136.731C138.628 11.8161 140.355 12.0906 141.911 12.6394C141.953 13.2516 141.388 13.6527 140.216 13.8427C139.406 14.476 138.98 14.8876 138.937 15.0776L138.969 15.2043C140.802 15.3309 141.729 15.4682 141.751 15.6159L142.007 15.4893L142.55 15.6159L143.253 15.4893C143.531 15.7004 144.447 15.922 146.003 16.1542L146.834 16.0276C146.856 16.3442 148.39 16.6609 151.438 16.9775L151.758 17.3575L151.79 17.6425C151.811 18.0225 151.204 18.3813 149.968 18.7191L149.936 18.5924C147.676 19.859 146.174 20.4923 145.428 20.4923C144.596 20.3023 144.095 20.2074 143.925 20.2074C143.626 20.8407 143.424 21.1573 143.317 21.1573H142.774L141.815 21.0306V21.1573L141.527 21.0306H141.399L141.559 21.284C141.324 21.284 141.218 21.5162 141.239 21.9806C141.602 21.9806 141.783 22.0228 141.783 22.1073L142.966 21.8539L143.285 21.9806C143.413 21.8962 143.584 21.8539 143.797 21.8539L144.085 21.9806C144.063 21.8962 144.106 21.8539 144.213 21.8539C144.234 21.9384 144.287 21.9806 144.373 21.9806L144.341 21.8539L145.587 22.1073L147.218 21.8539L147.25 21.9806L147.474 21.8539C147.687 21.9384 147.836 21.9806 147.921 21.9806L147.889 21.8539C149.36 21.8539 150.128 22.2128 150.191 22.9305L149.008 23.5955V23.4688C148.731 23.5533 148.593 23.6377 148.593 23.7222C148.508 23.7222 148.465 23.6799 148.465 23.5955C148.316 23.5955 147.826 23.7327 146.994 24.0071V23.8805C146.142 24.0916 145.513 24.271 145.108 24.4188C145.108 24.3344 145.065 24.2921 144.98 24.2921C144.255 24.8832 143.371 25.2843 142.326 25.4954C141.729 26.1076 139.854 27.0575 136.699 28.3452L136.731 28.4719C136.774 28.6619 136.87 28.7569 137.019 28.7569H137.978C138.426 28.7569 138.649 28.6619 138.649 28.4719C139.076 28.6408 139.321 28.8202 139.385 29.0102L139.417 29.2952C139.481 30.0129 139.065 30.4668 138.17 30.6568L138.138 30.4985L137.211 30.7835V30.6568C137.062 30.6568 135.868 31.2373 133.63 32.3984H133.086C132.553 32.3984 132.084 32.2612 131.68 31.9867H131.424C130.997 33.5277 130.294 34.2983 129.314 34.2983C127.161 35.1427 125.37 36.0926 123.942 37.1481C123.644 37.1481 123.143 37.6864 122.44 38.763C122.333 38.763 121.896 38.9425 121.129 39.3013V39.1747C120.468 39.5969 119.317 40.5046 117.676 41.8979H117.132C116.94 41.8979 116.834 41.8029 116.812 41.6129L116.78 41.4862C117.676 40.1352 118.624 38.8686 119.626 37.6864L120.841 35.7865C116.898 38.2353 113.967 40.2196 112.049 41.7395C111.175 43.4072 109.821 44.6316 107.988 45.4127L108.02 45.5393C108.02 45.6449 108.063 45.6977 108.148 45.6977C108.233 46.6687 107.199 47.3864 105.047 47.8509C103.171 49.1386 101.743 50.4052 100.762 51.6507C99.6326 52.5584 98.9399 53.5506 98.6841 54.6272C98.1513 55.0494 97.7996 55.6827 97.629 56.5271C97.4798 56.5271 97.352 56.6643 97.2454 56.9387C97.288 57.1076 97.3839 57.192 97.5331 57.192H97.8209C98.5882 57.192 100.88 56.4215 104.695 54.8805C106.123 54.4372 107.999 53.9411 110.322 53.3922L110.354 53.5506C111.569 53.3395 112.507 53.1073 113.168 52.8539V53.0123C115.555 52.379 119.178 51.5662 124.038 50.5741C124.017 50.4685 124.059 50.4157 124.166 50.4157L124.198 50.5741C125.69 50.1096 127.385 49.7402 129.282 49.4658L129.25 49.3391C128.973 49.3391 128.6 49.2547 128.131 49.0858C128.045 49.0858 128.013 49.128 128.035 49.2125C127.502 49.128 127.129 49.0858 126.916 49.0858C126.17 49.0858 125.402 49.1702 124.614 49.3391V49.2125C121.352 49.5713 118.741 49.9724 116.78 50.4157V50.2891C115.331 50.8379 114.212 51.1124 113.423 51.1124L113.232 50.8274V50.7007C113.21 50.4263 116.322 49.4763 122.567 47.8509V47.9775L127.523 46.6476V46.7743C130.23 46.0565 132.244 45.6027 133.566 45.4127V45.286L133.822 45.4127C133.992 45.4127 134.269 45.3177 134.653 45.1277V45.286C135.015 45.1171 135.601 44.9799 136.411 44.8744V45.001L144.66 43.7978V43.9244L144.916 43.7978H147.378L148.177 43.6394C148.348 43.7239 148.998 43.8189 150.128 43.9244C150.49 43.84 150.81 43.7978 151.087 43.7978C151.172 43.7978 151.215 43.84 151.215 43.9244L151.886 43.7978H152.717L153.389 43.9244V43.7978L154.795 44.2094V44.0511C156.565 44.4311 157.769 44.7477 158.408 45.001V44.8744C160.455 45.4232 162.234 46.4154 163.748 47.8509C164.856 49.7508 165.602 50.9224 165.986 51.3657C166.284 51.999 166.689 52.5478 167.201 53.0123C167.563 53.8355 167.798 54.8699 167.904 56.1154V56.2421C167.925 56.4532 167.893 56.6326 167.808 56.7804C167.936 56.9704 168 57.1076 168 57.192C167.893 57.192 167.84 57.2343 167.84 57.3187H168C167.446 60.6752 166.902 62.3534 166.369 62.3534C166.391 62.5856 165.911 63.3034 164.931 64.5066C164.867 64.9288 164.099 66.0582 162.629 67.8948L162.277 68.4331C162.32 68.9608 161.755 69.7736 160.582 70.8713C159.133 72.1379 158.419 72.9506 158.44 73.3095C157.311 74.5761 156.746 75.2622 156.746 75.3677C155.254 77.4365 153.804 79.1464 152.398 80.4974C152.419 80.6452 152.206 80.8669 151.758 81.1624C151.012 81.9224 149.989 82.6929 148.689 83.474C147.197 84.8039 146.003 85.7116 145.108 86.1971C145.108 86.0916 145.065 86.0388 144.98 86.0388C143.786 87.0732 142.71 87.8437 141.751 88.3504C141.751 88.4559 141.442 88.6353 140.824 88.8887C140.653 88.8042 140.472 88.762 140.28 88.762L140.248 88.477C142.529 86.9149 144.319 85.5638 145.619 84.4239C148.859 81.0463 150.65 79.1042 150.991 78.5975C152.611 77.2465 153.762 75.8533 154.444 74.4178H154.316C151.758 76.3388 150.479 77.3732 150.479 77.5209C149.776 78.4498 148.838 79.1253 147.666 79.5475C146.046 80.983 144.074 82.334 141.751 83.6006C140.856 84.5717 139.822 85.3 138.649 85.7855C138.671 85.9966 137.989 86.6721 136.603 87.8121C135.452 88.4031 133.971 89.5325 132.159 91.2002L129.569 92.9734C129.164 93.5434 128.493 94.1239 127.555 94.715V94.8733L131.36 93.1001C131.743 92.9734 133.044 92.2979 135.26 91.0735C135.623 91.0735 135.804 91.0313 135.804 90.9469C136.102 91.0313 136.305 91.2108 136.411 91.4852C135.175 92.4351 132.841 93.9656 129.409 96.0766C129.409 95.9922 129.367 95.9499 129.282 95.9499C129.111 96.3721 127.758 97.1427 125.221 98.2615C123.814 99.1692 121.086 100.657 117.036 102.726C117.015 102.621 116.962 102.568 116.876 102.568C114.425 104.362 112.294 105.587 110.482 106.241L110.162 105.829C110.226 105.639 111.345 104.784 113.519 103.265L114.542 102.315H114.414C114.223 102.315 113.605 102.589 112.56 103.138L111.153 102.726H110.45C109.022 102.853 108.052 103.254 107.54 103.93C107.008 104.795 105.729 105.745 103.704 106.779C103.171 107.349 101.434 108.342 98.4923 109.756L94.6237 112.606L94.3679 112.479C93.6219 112.711 92.3963 113.345 90.6911 114.379C89.0925 115.223 87.0675 116.078 84.6163 116.944C83.5506 117.387 80.7584 118.284 76.2396 119.635C76.2609 119.741 76.2289 119.794 76.1437 119.794C76.1224 119.688 76.0584 119.635 75.9519 119.635C75.9732 119.889 75.1952 120.3 73.6179 120.87L73.3301 120.744L73.0743 120.87C72.8399 120.828 72.6374 120.606 72.4669 120.205L78.1899 116.944C79.1917 116.099 80.8756 115.012 83.2415 113.682C83.3268 113.682 83.412 113.545 83.4973 113.271L84.1687 113.429C84.254 113.429 84.2966 113.376 84.2966 113.271C84.4884 113.376 84.9147 113.471 85.5755 113.556C86.492 113.556 86.897 113.06 86.7905 112.067C87.6857 111.877 88.112 111.519 88.0693 110.991L87.9095 110.706L87.8775 110.579C87.8775 110.495 87.9201 110.453 88.0054 110.453L87.8455 110.168V110.041C90.1049 109.07 92.4922 107.708 95.0073 105.956C95.3484 105.956 95.7001 105.734 96.0624 105.291L96.0304 105.164L93.1529 106.368L93.121 106.241C92.6094 106.241 90.9362 106.959 88.1013 108.394C87.8669 108.648 87.0782 108.922 85.7354 109.218C85.2664 109.598 83.7637 110.136 81.2273 110.832C81.0568 110.959 80.9715 111.096 80.9715 111.244L80.6837 111.117C80.2148 111.117 78.2219 111.751 74.7049 113.017L74.4172 113.144V113.017C72.7759 113.566 70.751 114.337 68.3425 115.329H67.767L67.735 114.917C67.7989 114.727 69.664 113.64 73.3301 111.656C73.7351 111.529 74.3426 111.17 75.1525 110.579C75.1739 110.664 75.2378 110.706 75.3444 110.706L79.0851 108.268V108.141C76.1224 109.576 71.7315 111.107 65.9126 112.732C64.4418 113.281 61.1487 114.231 56.0331 115.582C54.0082 116.406 51.8128 117.176 49.4468 117.894L49.0951 117.482V117.355C49.0951 117.25 50.5339 116.479 53.4114 115.044C57.1415 113.06 59.8591 111.846 61.5643 111.402C61.543 111.17 62.3743 110.716 64.0582 110.041V110.168C65.3157 110.062 66.1577 109.84 66.584 109.503C66.5627 109.228 66.4348 108.859 66.2003 108.394L67.7989 107.603C67.9694 107.687 68.108 107.729 68.2146 107.729C69.8984 107.138 70.7084 106.463 70.6445 105.703L70.6125 105.418C70.3993 105.418 68.9499 105.967 66.2643 107.064L64.6337 107.444C64.6124 107.36 64.5591 107.318 64.4738 107.318C64.218 107.655 63.44 108.109 62.1398 108.679C61.7775 108.553 61.5856 108.415 61.5643 108.268L61.5324 108.014C65.1559 105.924 69.0778 103.792 73.2982 101.618C73.2982 101.724 73.3408 101.776 73.426 101.776C73.5113 101.565 75.1312 100.7 78.2858 99.1798C78.8826 98.7365 81.0461 97.3854 84.7762 95.1267H85.1599C85.3517 95.1478 85.4476 95.2428 85.4476 95.4116L85.4796 95.5383C85.2025 95.5383 83.7211 96.8893 81.0354 99.5914V99.7497H81.1633C81.206 99.6231 82.7833 98.8103 85.8952 97.3115C88.5809 95.9816 91.1493 94.5356 93.6005 92.9734C96.1796 91.6013 98.2152 90.4191 99.7072 89.427H99.8351L99.8032 89.047C96.1157 90.4825 94.176 91.2002 93.9842 91.2002C93.9842 91.2846 93.8563 91.3796 93.6005 91.4852C93.5792 91.3796 93.5259 91.3269 93.4407 91.3269C93.462 91.538 92.279 92.0868 89.8918 92.9734H89.7639C89.5934 92.9734 89.4974 92.8784 89.4761 92.6885V92.5618C89.5188 92.2663 90.414 91.728 92.1618 90.9469C92.652 90.5036 93.5686 89.9547 94.9114 89.3003C97.8742 87.3582 100.134 86.0494 101.69 85.3738C102.755 84.6983 103.736 84.0228 104.631 83.3473C105.505 83.3473 109.086 81.0885 115.374 76.571C115.374 76.4654 115.981 76.0116 117.196 75.2094C117.558 75.3572 117.75 75.4944 117.772 75.621C117.793 75.811 116.908 76.7188 115.118 78.3442L110.482 82.9356H110.77C110.898 82.9356 112.326 82.0807 115.054 80.3708C116.844 79.1886 117.836 78.5975 118.027 78.5975C118.645 78.872 119.21 79.0092 119.722 79.0092C120.979 79.0092 121.566 78.4709 121.48 77.3943C122.205 77.1832 122.567 77.046 122.567 76.9826C123.441 77.2571 123.953 77.3943 124.102 77.3943H125.477L125.381 76.571C125.53 76.3388 125.605 76.2016 125.605 76.1593H125.477L125.669 75.2094H125.541C125.477 74.6183 125.839 74.0378 126.628 73.4678C129.207 71.589 131.541 70.143 133.63 69.1297C136.848 66.8498 138.532 65.2666 138.681 64.38C138.724 64.0844 138.735 63.7678 138.713 63.43C138.266 63.3456 138.031 63.2506 138.01 63.145C133.001 64.5594 128.941 66.1427 125.829 67.8948C124.315 68.8658 122.226 69.858 119.562 70.8713C117.899 71.8424 114.947 73.0667 110.706 74.5444L110.674 74.4178L110.418 74.5444C110.247 74.5444 110.152 74.4072 110.13 74.1328C110.109 73.9006 110.791 73.4045 112.176 72.6445C114.649 71.0824 116.738 69.4569 118.443 67.7681H118.155C114.468 69.6469 110.876 71.2302 107.381 72.5179C107.402 72.6656 105.771 73.3834 102.489 74.6711C96.8191 76.381 92.9718 77.236 90.9468 77.236C86.897 77.236 83.8064 75.7477 81.6749 72.7712H81.8348C81.4724 72.3068 81.0354 71.589 80.5239 70.618H80.396L80.428 71.0296C80.5132 71.0296 80.5559 71.0718 80.5559 71.1563H80.428C80.833 72.5918 81.4617 73.9428 82.3143 75.2094C82.5062 75.2094 82.6234 75.4416 82.666 75.906V76.1593L81.9946 76.286C79.65 74.5339 77.8489 71.7368 76.5913 67.8948L76.4954 66.6915L76.3355 66.4065H76.4634C76.2503 66.0054 76.1117 65.4249 76.0478 64.665C75.792 61.794 75.8773 59.7147 76.3035 58.427C76.3035 58.3214 76.2609 58.2686 76.1757 58.2686L76.6552 56.1154H76.5274L79.7566 47.7242C81.5044 44.7055 82.9538 42.5312 84.1048 41.2012C84.0835 40.9901 84.6909 40.1352 85.9272 38.6364C86.4814 38.1297 87.2487 37.1376 88.2292 35.6599C88.421 35.6599 89.636 34.4355 91.874 31.9867L92.8012 31.4484C92.9931 31.554 93.1316 31.6067 93.2169 31.6067L93.2488 31.9867L90.819 35.1216C89.6466 37.0003 88.7727 38.5836 88.1972 39.8713C88.4104 39.8713 89.0498 39.238 90.1156 37.9714C93.3128 34.7416 96.8191 31.5751 100.634 28.4719C103.128 26.2976 106.006 24.4082 109.267 22.8039C111.42 21.3051 112.901 20.5346 113.711 20.4923C113.711 20.3023 113.615 20.2074 113.423 20.2074C109.949 21.1151 106.155 22.6033 102.041 24.6721C100.166 26.4876 98.9825 27.3953 98.4923 27.3953C98.3644 27.2264 98.2898 27.0892 98.2685 26.9837C98.3538 26.6248 99.281 25.7698 101.05 24.4188C109.15 19.2891 113.903 16.7137 115.31 16.6925C119.423 14.6238 122.194 13.5894 123.623 13.5894C124.795 13.0827 127.171 12.5867 130.752 12.1011C130.838 12.1011 130.891 12.1433 130.912 12.2278C131.701 12.0378 132.788 11.9428 134.173 11.9428H134.461C134.546 11.9428 134.578 11.9006 134.557 11.8161ZM155.627 16.2809C156.927 16.5342 157.598 16.9459 157.641 17.5158L157.705 18.0541L157.065 18.7191C155.211 18.3813 154.273 18.0225 154.252 17.6425L154.188 17.2308C154.593 16.5975 155.073 16.2809 155.627 16.2809Z"/>
</mask>
<path d="M35.6988 2C35.8693 2.08444 36.0505 2.12666 36.2423 2.12666L36.2743 2.50664C35.2725 6.62308 34.4305 9.70514 33.7485 11.7528C33.7698 11.8372 33.4927 13.4416 32.9172 16.5659L33.0451 16.8192L32.9492 17.0725H33.077C32.9918 17.9803 32.7467 19.078 32.3417 20.3657V20.4923L32.5335 21.1256H32.4056C32.5122 21.2945 32.5655 21.4212 32.5655 21.5056C32.4376 21.8223 32.2991 22.5822 32.1498 23.7855C32.0646 23.7855 32.022 23.8277 32.022 23.9122V24.0388C32.4909 23.6166 32.7893 23.11 32.9172 22.5189C32.9172 22.4345 32.8746 22.3922 32.7893 22.3922C33.4074 20.6401 34.1854 19.3313 35.1233 18.4658H35.6348L35.8267 19.0991C35.8693 19.7324 35.6775 21.0412 35.2512 23.0255L35.379 24.2921L35.2831 24.5455H35.411C35.2831 25.031 35.102 26.3398 34.8675 28.4719C35.1659 28.3452 35.6135 27.6275 36.2103 26.3187C36.3169 26.3187 36.5514 26.1076 36.9137 25.6854H37.1695C37.6384 25.6854 37.9475 25.8543 38.0967 26.192L38.1606 26.952C38.0541 27.6486 37.3613 30.3929 36.0824 35.1849C36.1038 35.5226 36.0291 35.6915 35.8586 35.6915L36.0185 35.9448C35.102 38.3725 34.5051 40.3146 34.228 41.7712C34.3986 41.7712 34.8249 41.3068 35.5069 40.3779C36.0824 39.3647 36.594 38.858 37.0416 38.858H37.2974L37.3294 39.1113C37.3507 39.3224 36.8285 40.6313 35.7627 43.0378C34.7609 44.3044 34.3026 45.4443 34.3879 46.4576C34.6863 46.9431 34.8568 47.3653 34.8995 47.7242C34.7716 48.3575 34.26 49.3708 33.3648 50.764L32.8532 52.1573H32.9811C32.4909 53.065 32.0859 54.2472 31.7662 55.7038H31.8941C31.6809 56.1893 31.4145 57.4981 31.0948 59.6302C30.434 60.9179 29.8159 62.6912 29.2404 64.9499L29.0166 65.0766H28.7608L28.6968 64.3166L29.2404 60.6435C29.3256 60.6435 29.3683 60.6013 29.3683 60.5169V60.3902C29.3469 60.3058 29.2937 60.2635 29.2084 60.2635C29.2084 60.0947 29.4322 59.1658 29.8798 57.477C29.9864 56.9282 30.0397 56.5904 30.0397 56.4637C29.4215 57.1815 29.1551 58.0681 29.2404 59.1236C28.4304 60.5802 28.0254 61.7201 28.0254 62.5434C27.8975 62.5645 27.5778 63.3245 27.0663 64.8233H26.9384L27.0982 65.0766C27.0982 65.1188 27.0343 65.4144 26.9064 65.9632L27.0663 66.2165C26.171 68.032 25.4783 70.3119 24.9881 73.0562C25.0094 73.4784 24.2953 76.476 22.8459 82.049C22.5475 83.6534 22.4303 84.8355 22.4942 85.5955H22.6221C22.7926 85.6166 22.8885 85.7011 22.9099 85.8488C22.5688 86.7988 22.409 87.3476 22.4303 87.4954C22.5795 87.4954 23.4214 86.4821 24.9561 84.4556C27.8975 80.8035 29.656 78.4814 30.2315 77.4893L33.7165 73.5628V73.4362L33.3328 73.6895C33.3328 73.605 33.2902 73.5628 33.2049 73.5628C31.585 75.0405 30.1889 76.1382 29.0166 76.856C28.846 76.7715 28.7182 76.7293 28.6329 76.7293L28.6009 76.3493C30.7964 74.2383 32.3417 72.4229 33.2369 70.903C33.4927 70.8819 34.5051 69.8264 36.2743 67.7365C37.2761 66.871 37.9368 66.1954 38.2566 65.7099C39.0452 65.0133 39.9937 63.6622 41.1021 61.6568C42.8499 59.9258 43.9263 58.5325 44.3313 57.477C46.6546 55.0071 48.1466 53.065 48.8074 51.6507C49.5321 50.3841 50.3208 49.2019 51.1733 48.1042C52.1965 46.7743 53.2409 45.5921 54.3066 44.5577C55.3084 43.1222 56.5873 41.6445 58.1433 40.1246C58.6975 39.0058 59.9551 37.7814 61.916 36.4515C62.0652 35.9448 62.3743 35.6915 62.8432 35.6915L63.1629 36.0715C63.1629 36.2193 62.8859 36.5148 62.3317 36.9581C60.9675 38.5203 60.1362 39.7024 59.8378 40.5046C59.6886 40.5046 59.3796 40.8846 58.9106 41.6445C58.1859 42.2567 57.685 42.89 57.4079 43.5444C56.5767 44.5366 55.8946 45.4654 55.3617 46.3309H55.4896C55.5749 46.3309 56.161 45.6977 57.2481 44.4311C57.8449 43.7344 58.7295 43.1433 59.9018 42.6578C60.5199 42.0878 61.202 41.159 61.948 39.8713C62.2677 39.7024 63.0777 38.7736 64.3779 37.0848C65.5715 36.1982 66.6479 34.8893 67.6071 33.1583C69.2057 31.2584 70.3887 30.0763 71.156 29.6118C71.4971 29.1474 72.0512 28.683 72.8186 28.2186C74.4172 26.6565 75.3977 25.7698 75.76 25.5587V25.4321H75.3764C74.1827 26.1709 73.4687 26.7198 73.2342 27.0787C72.4242 27.0787 71.1027 27.6275 69.2696 28.7252H69.0139C68.822 28.5141 68.7261 28.3875 68.7261 28.3452C69.7705 27.6275 70.8043 26.7409 71.8274 25.6854C71.9766 25.6854 72.2218 25.5587 72.5628 25.3054H72.6907L72.5308 25.0521L72.7866 24.9254V25.1788C73.2555 24.7777 73.9483 24.3132 74.8648 23.7855C75.419 23.4477 75.6854 23.1522 75.6641 22.8989L75.9199 23.0255C75.9199 22.8355 76.5593 22.3289 77.8382 21.5056C78.2219 20.5768 79.2024 19.5635 80.7797 18.4658C83.2948 15.6793 84.8295 14.286 85.3837 14.286C85.6821 13.716 86.6306 12.8716 88.2292 11.7528C88.826 11.3306 89.2843 11.1195 89.604 11.1195C89.7745 11.1406 89.8598 11.2251 89.8598 11.3728L89.8918 11.6261C87.3127 14.2016 86.0444 15.8059 86.0871 16.4392C85.9592 16.4392 85.8419 16.5659 85.7354 16.8192L85.7673 16.9459H85.8952L88.6768 15.1726C90.1475 13.3994 91.4158 12.3017 92.4815 11.8795C95.7427 9.51515 97.5544 8.33299 97.9168 8.33299C98.0447 8.33299 98.1832 8.45965 98.3324 8.71297L98.3644 8.96629C97.5331 10.2329 97.1282 10.9506 97.1495 11.1195C99.3023 9.85291 100.56 9.21961 100.922 9.21961C101.114 9.43071 101.221 9.59959 101.242 9.72625C100.645 11.3939 99.7605 12.5339 98.5882 13.1461C98.6095 13.2305 98.4284 13.5683 98.0447 14.1593H98.4284C99.2596 13.8638 100.176 13.1038 101.178 11.8795C103.096 10.7606 104.62 9.66292 105.75 8.58631C105.942 8.58631 106.581 8.16411 107.668 7.31971L111.921 4.91318L112.656 4.40654C113.082 4.51209 113.306 4.63875 113.327 4.78652L113.359 5.1665C112.912 5.1665 111.441 6.34866 108.947 8.71297C108.18 9.47293 107.7 9.85291 107.508 9.85291C107.018 10.5284 106.709 10.8662 106.581 10.8662C105.516 11.7317 104.066 13.1672 102.233 15.1726C101.721 16.0381 100.901 16.9248 99.7712 17.8325C97.9594 19.3946 95.8706 21.7589 93.5046 24.9254C92.6307 26.5087 90.8083 28.5775 88.0374 31.1318C88.0374 31.0473 87.9947 31.0051 87.9095 31.0051C87.9308 31.2795 87.5791 31.7017 86.8544 32.2717C86.8544 32.3773 86.4814 32.9261 85.7354 33.9183C85.6927 34.1505 85.4156 34.446 84.9041 34.8049C84.9254 35.1216 83.8383 36.3459 81.6429 38.478C80.4919 39.998 79.8312 40.7579 79.6606 40.7579C79.682 40.8846 79.1064 41.5179 77.9341 42.6578C77.9768 43.1433 76.8471 44.4099 74.5451 46.4576C74.5664 46.6265 74.1507 47.2598 73.2982 48.3575C73.3195 48.5264 73.2022 48.6108 72.9465 48.6108V48.7375H73.2022C73.2236 48.6108 73.895 47.9775 75.2165 46.8376V46.7109C75.3018 46.7109 75.3444 46.7531 75.3444 46.8376C75.5149 46.8376 76.4208 45.9087 78.062 44.0511C78.2112 44.0511 78.7974 43.5444 79.8205 42.5312L82.3783 40.8846C82.3996 41.0535 82.5381 41.1379 82.7939 41.1379V41.2646C81.0887 42.6789 78.7548 45.2121 75.792 48.8641C74.5557 50.0463 73.5113 51.2707 72.6587 52.5373C72.4882 52.5373 71.7102 53.4239 70.3247 55.1971C67.6604 57.7726 66.3389 59.1236 66.3602 59.2503C65.8486 59.7358 65.1559 60.5802 64.282 61.7835C63.6425 62.6279 62.8645 64.0211 61.948 65.9632C61.3938 67.1243 60.2535 68.6864 58.527 70.6496C57.0562 73.014 56.0971 74.7028 55.6495 75.716C54.2214 77.7215 52.5375 79.8747 50.5978 82.1757C50.5552 82.8723 50.0756 83.6745 49.1591 84.5822H48.7754C48.7541 84.4133 48.7008 84.3289 48.6156 84.3289C48.9779 82.9568 49.6813 81.268 50.7257 79.2625L50.6938 79.0092C48.9673 80.5713 48.1147 81.5424 48.136 81.9224C47.4539 83.0412 46.6866 83.97 45.834 84.7089C43.1483 88.6565 41.2406 91.2319 40.1109 92.4351C40.1323 92.7096 39.5354 93.6384 38.3205 95.2217L38.0008 95.855H38.1287C40.452 93.7228 41.7948 92.5829 42.1572 92.4351C42.1785 92.5196 42.2318 92.5618 42.317 92.5618L42.2851 92.4351C42.4769 92.5196 42.6154 92.5618 42.7007 92.5618L42.7327 93.0684C42.4343 93.0684 42.0826 93.4484 41.6776 94.2084C41.5497 94.2084 41.3685 94.5461 41.1341 95.2217C39.0452 97.7549 37.8729 99.0214 37.6171 99.0214L37.777 99.2748C36.2849 100.964 35.3897 101.892 35.0913 102.061C35.1126 102.251 34.633 102.631 33.6525 103.201C33.141 103.771 32.6934 104.447 32.3097 105.228C32.1179 105.228 31.1161 106.494 29.3043 109.028C27.6844 110.885 26.8744 111.856 26.8744 111.941C26.2137 112.447 25.425 113.63 24.5085 115.487C22.6967 117.092 21.8228 118.274 21.8867 119.034H21.7589C21.5244 118.865 21.3859 118.78 21.3432 118.78H21.2153C21.2366 119.118 21.0874 119.371 20.7677 119.54L20.6079 119.287C21.5031 116.775 22.6115 114.284 23.933 111.814H23.8051C21.3326 114.305 20.107 115.952 20.1283 116.754C19.297 118.063 18.7641 118.78 18.5297 118.907C18.2739 119.35 17.6451 119.857 16.6433 120.427C16.2596 120.828 15.6308 122.01 14.7569 123.973C13.7765 125.219 13.2862 125.894 13.2862 126H12.7747C12.5189 126 12.2844 125.282 12.0713 123.847H11.9434C12.9452 121.609 13.3821 119.836 13.2542 118.527C13.4887 117.809 13.6805 117.007 13.8297 116.121H13.7018C13.2969 116.142 12.5295 117.577 11.3998 120.427C11.2506 120.427 10.9949 120.511 10.6325 120.68C10.121 120.533 9.84386 120.237 9.80123 119.794C10.1849 116.479 10.3554 114.537 10.3128 113.967L10.2808 113.841L9.0339 114.221C8.75681 114.221 8.46906 113.756 8.17065 112.827H8.29854C8.27722 112.743 8.22393 112.701 8.13868 112.701C8.24525 111.687 8.33051 111.181 8.39445 111.181C8.24525 110.653 8.08539 110.231 7.91487 109.914C7.74435 109.914 7.05162 110.336 5.83667 111.181H5.70878C5.26117 111.181 4.94145 110.505 4.74961 109.154V109.028C4.62173 107.571 4.6537 106.431 4.84553 105.608L4.20609 102.695C4.20609 101.808 4.18477 101.09 4.14214 100.541H4.27003C3.95031 99.1903 3.46007 98.5148 2.79931 98.5148C2.47958 98.4304 2.21315 98.2615 2 98.0082C2.55419 94.8206 2.88457 92.2874 2.99114 90.4086C3.56664 89.4375 3.96097 88.2131 4.17411 86.7354H4.04623C4.19543 85.3633 4.44055 84.2234 4.78159 83.3156C4.76027 83.0623 5.11197 81.2468 5.83667 77.8693C6.11376 75.716 6.67861 73.9006 7.5312 72.4229C7.87224 72.4229 8.47971 70.6496 9.35362 67.1032C9.92912 65.8788 10.4727 63.81 10.9842 60.8968L11.24 60.7702H11.4958C11.6237 60.7702 11.7622 60.8968 11.9114 61.1502L11.7835 61.4035H11.9114L11.6237 62.1634L11.7515 62.4168C11.5384 62.4168 11.4318 62.6279 11.4318 63.0501H11.5597C10.8989 66.1321 10.5792 67.8631 10.6005 68.2431L10.6325 68.3698H10.7604L11.7515 65.2033C12.6041 63.1767 13.0091 61.9946 12.9665 61.6568L12.7427 60.5169C12.8493 59.8836 12.9025 59.5036 12.9025 59.3769H12.7747L12.8706 59.1236V58.9969C12.8493 58.9125 12.796 58.8703 12.7107 58.8703C12.7107 58.6803 13.1903 57.3292 14.1495 54.8172C14.725 53.1706 15.3431 50.0041 16.0039 45.3177C16.0891 45.3177 16.1531 45.0644 16.1957 44.5577H16.0678C16.0891 43.9455 16.2383 43.1856 16.5154 42.2778H16.2596C16.0678 43.65 15.7587 44.4944 15.3324 44.811V44.9377L15.4923 45.191C15.2152 45.191 15.0553 45.8665 15.0127 47.2176C14.5438 48.2308 14.1281 49.2863 13.7658 50.3841C13.6379 51.144 13.4567 51.524 13.2223 51.524L12.6787 51.2707L13.3182 48.2308L13.1583 47.9775C13.542 46.4576 13.8617 44.6844 14.1175 42.6578C14.0322 42.6578 13.9789 42.6156 13.9576 42.5312C14.9168 40.8424 15.3538 39.4491 15.2685 38.3514C15.8866 37.5703 16.1317 36.5148 16.0039 35.1849C17.3041 32.3984 18.0714 30.4985 18.3059 29.4852C18.9666 28.5563 19.5847 26.7831 20.1602 24.1655C20.48 22.9622 21.226 21.2734 22.3983 19.0991C23.5706 15.637 24.3166 13.5683 24.6364 12.8927C25.8726 11.3728 26.5334 10.6129 26.6186 10.6129H26.8744C27.2368 10.7817 27.4286 11.0351 27.4499 11.3728C27.5139 11.9428 27.2368 13.1672 26.6186 15.046L26.6826 15.5526H26.8105L26.7146 15.8059L26.7465 16.3126C26.7465 16.397 26.7892 16.4392 26.8744 16.4392L26.7785 16.6925L26.9703 17.3258C26.8851 17.3258 26.8425 17.3681 26.8425 17.4525H26.9703C27.1195 16.6714 27.9828 15.3626 29.5601 13.526C29.7732 11.605 30.4127 10.1696 31.4784 9.21961C31.7982 9.21961 32.3523 8.16411 33.141 6.05312C33.5673 5.01873 34.4199 3.66769 35.6988 2Z" fill="url(#paint0_linear_17_36095)"/>
<path d="M134.557 11.8161C134.642 11.8161 134.696 11.8584 134.717 11.9428L135.388 11.8161H136.731C138.628 11.8161 140.355 12.0906 141.911 12.6394C141.953 13.2516 141.388 13.6527 140.216 13.8427C139.406 14.476 138.98 14.8876 138.937 15.0776L138.969 15.2043C140.802 15.3309 141.729 15.4682 141.751 15.6159L142.007 15.4893L142.55 15.6159L143.253 15.4893C143.531 15.7004 144.447 15.922 146.003 16.1542L146.834 16.0276C146.856 16.3442 148.39 16.6609 151.438 16.9775L151.758 17.3575L151.79 17.6425C151.811 18.0225 151.204 18.3813 149.968 18.7191L149.936 18.5924C147.676 19.859 146.174 20.4923 145.428 20.4923C144.596 20.3023 144.095 20.2074 143.925 20.2074C143.626 20.8407 143.424 21.1573 143.317 21.1573H142.774L141.815 21.0306V21.1573L141.527 21.0306H141.399L141.559 21.284C141.324 21.284 141.218 21.5162 141.239 21.9806C141.602 21.9806 141.783 22.0228 141.783 22.1073L142.966 21.8539L143.285 21.9806C143.413 21.8962 143.584 21.8539 143.797 21.8539L144.085 21.9806C144.063 21.8962 144.106 21.8539 144.213 21.8539C144.234 21.9384 144.287 21.9806 144.373 21.9806L144.341 21.8539L145.587 22.1073L147.218 21.8539L147.25 21.9806L147.474 21.8539C147.687 21.9384 147.836 21.9806 147.921 21.9806L147.889 21.8539C149.36 21.8539 150.128 22.2128 150.191 22.9305L149.008 23.5955V23.4688C148.731 23.5533 148.593 23.6377 148.593 23.7222C148.508 23.7222 148.465 23.6799 148.465 23.5955C148.316 23.5955 147.826 23.7327 146.994 24.0071V23.8805C146.142 24.0916 145.513 24.271 145.108 24.4188C145.108 24.3344 145.065 24.2921 144.98 24.2921C144.255 24.8832 143.371 25.2843 142.326 25.4954C141.729 26.1076 139.854 27.0575 136.699 28.3452L136.731 28.4719C136.774 28.6619 136.87 28.7569 137.019 28.7569H137.978C138.426 28.7569 138.649 28.6619 138.649 28.4719C139.076 28.6408 139.321 28.8202 139.385 29.0102L139.417 29.2952C139.481 30.0129 139.065 30.4668 138.17 30.6568L138.138 30.4985L137.211 30.7835V30.6568C137.062 30.6568 135.868 31.2373 133.63 32.3984H133.086C132.553 32.3984 132.084 32.2612 131.68 31.9867H131.424C130.997 33.5277 130.294 34.2983 129.314 34.2983C127.161 35.1427 125.37 36.0926 123.942 37.1481C123.644 37.1481 123.143 37.6864 122.44 38.763C122.333 38.763 121.896 38.9425 121.129 39.3013V39.1747C120.468 39.5969 119.317 40.5046 117.676 41.8979H117.132C116.94 41.8979 116.834 41.8029 116.812 41.6129L116.78 41.4862C117.676 40.1352 118.624 38.8686 119.626 37.6864L120.841 35.7865C116.898 38.2353 113.967 40.2196 112.049 41.7395C111.175 43.4072 109.821 44.6316 107.988 45.4127L108.02 45.5393C108.02 45.6449 108.063 45.6977 108.148 45.6977C108.233 46.6687 107.199 47.3864 105.047 47.8509C103.171 49.1386 101.743 50.4052 100.762 51.6507C99.6326 52.5584 98.9399 53.5506 98.6841 54.6272C98.1513 55.0494 97.7996 55.6827 97.629 56.5271C97.4798 56.5271 97.352 56.6643 97.2454 56.9387C97.288 57.1076 97.3839 57.192 97.5331 57.192H97.8209C98.5882 57.192 100.88 56.4215 104.695 54.8805C106.123 54.4372 107.999 53.9411 110.322 53.3922L110.354 53.5506C111.569 53.3395 112.507 53.1073 113.168 52.8539V53.0123C115.555 52.379 119.178 51.5662 124.038 50.5741C124.017 50.4685 124.059 50.4157 124.166 50.4157L124.198 50.5741C125.69 50.1096 127.385 49.7402 129.282 49.4658L129.25 49.3391C128.973 49.3391 128.6 49.2547 128.131 49.0858C128.045 49.0858 128.013 49.128 128.035 49.2125C127.502 49.128 127.129 49.0858 126.916 49.0858C126.17 49.0858 125.402 49.1702 124.614 49.3391V49.2125C121.352 49.5713 118.741 49.9724 116.78 50.4157V50.2891C115.331 50.8379 114.212 51.1124 113.423 51.1124L113.232 50.8274V50.7007C113.21 50.4263 116.322 49.4763 122.567 47.8509V47.9775L127.523 46.6476V46.7743C130.23 46.0565 132.244 45.6027 133.566 45.4127V45.286L133.822 45.4127C133.992 45.4127 134.269 45.3177 134.653 45.1277V45.286C135.015 45.1171 135.601 44.9799 136.411 44.8744V45.001L144.66 43.7978V43.9244L144.916 43.7978H147.378L148.177 43.6394C148.348 43.7239 148.998 43.8189 150.128 43.9244C150.49 43.84 150.81 43.7978 151.087 43.7978C151.172 43.7978 151.215 43.84 151.215 43.9244L151.886 43.7978H152.717L153.389 43.9244V43.7978L154.795 44.2094V44.0511C156.565 44.4311 157.769 44.7477 158.408 45.001V44.8744C160.455 45.4232 162.234 46.4154 163.748 47.8509C164.856 49.7508 165.602 50.9224 165.986 51.3657C166.284 51.999 166.689 52.5478 167.201 53.0123C167.563 53.8355 167.798 54.8699 167.904 56.1154V56.2421C167.925 56.4532 167.893 56.6326 167.808 56.7804C167.936 56.9704 168 57.1076 168 57.192C167.893 57.192 167.84 57.2343 167.84 57.3187H168C167.446 60.6752 166.902 62.3534 166.369 62.3534C166.391 62.5856 165.911 63.3034 164.931 64.5066C164.867 64.9288 164.099 66.0582 162.629 67.8948L162.277 68.4331C162.32 68.9608 161.755 69.7736 160.582 70.8713C159.133 72.1379 158.419 72.9506 158.44 73.3095C157.311 74.5761 156.746 75.2622 156.746 75.3677C155.254 77.4365 153.804 79.1464 152.398 80.4974C152.419 80.6452 152.206 80.8669 151.758 81.1624C151.012 81.9224 149.989 82.6929 148.689 83.474C147.197 84.8039 146.003 85.7116 145.108 86.1971C145.108 86.0916 145.065 86.0388 144.98 86.0388C143.786 87.0732 142.71 87.8437 141.751 88.3504C141.751 88.4559 141.442 88.6353 140.824 88.8887C140.653 88.8042 140.472 88.762 140.28 88.762L140.248 88.477C142.529 86.9149 144.319 85.5638 145.619 84.4239C148.859 81.0463 150.65 79.1042 150.991 78.5975C152.611 77.2465 153.762 75.8533 154.444 74.4178H154.316C151.758 76.3388 150.479 77.3732 150.479 77.5209C149.776 78.4498 148.838 79.1253 147.666 79.5475C146.046 80.983 144.074 82.334 141.751 83.6006C140.856 84.5717 139.822 85.3 138.649 85.7855C138.671 85.9966 137.989 86.6721 136.603 87.8121C135.452 88.4031 133.971 89.5325 132.159 91.2002L129.569 92.9734C129.164 93.5434 128.493 94.1239 127.555 94.715V94.8733L131.36 93.1001C131.743 92.9734 133.044 92.2979 135.26 91.0735C135.623 91.0735 135.804 91.0313 135.804 90.9469C136.102 91.0313 136.305 91.2108 136.411 91.4852C135.175 92.4351 132.841 93.9656 129.409 96.0766C129.409 95.9922 129.367 95.9499 129.282 95.9499C129.111 96.3721 127.758 97.1427 125.221 98.2615C123.814 99.1692 121.086 100.657 117.036 102.726C117.015 102.621 116.962 102.568 116.876 102.568C114.425 104.362 112.294 105.587 110.482 106.241L110.162 105.829C110.226 105.639 111.345 104.784 113.519 103.265L114.542 102.315H114.414C114.223 102.315 113.605 102.589 112.56 103.138L111.153 102.726H110.45C109.022 102.853 108.052 103.254 107.54 103.93C107.008 104.795 105.729 105.745 103.704 106.779C103.171 107.349 101.434 108.342 98.4923 109.756L94.6237 112.606L94.3679 112.479C93.6219 112.711 92.3963 113.345 90.6911 114.379C89.0925 115.223 87.0675 116.078 84.6163 116.944C83.5506 117.387 80.7584 118.284 76.2396 119.635C76.2609 119.741 76.2289 119.794 76.1437 119.794C76.1224 119.688 76.0584 119.635 75.9519 119.635C75.9732 119.889 75.1952 120.3 73.6179 120.87L73.3301 120.744L73.0743 120.87C72.8399 120.828 72.6374 120.606 72.4669 120.205L78.1899 116.944C79.1917 116.099 80.8756 115.012 83.2415 113.682C83.3268 113.682 83.412 113.545 83.4973 113.271L84.1687 113.429C84.254 113.429 84.2966 113.376 84.2966 113.271C84.4884 113.376 84.9147 113.471 85.5755 113.556C86.492 113.556 86.897 113.06 86.7905 112.067C87.6857 111.877 88.112 111.519 88.0693 110.991L87.9095 110.706L87.8775 110.579C87.8775 110.495 87.9201 110.453 88.0054 110.453L87.8455 110.168V110.041C90.1049 109.07 92.4922 107.708 95.0073 105.956C95.3484 105.956 95.7001 105.734 96.0624 105.291L96.0304 105.164L93.1529 106.368L93.121 106.241C92.6094 106.241 90.9362 106.959 88.1013 108.394C87.8669 108.648 87.0782 108.922 85.7354 109.218C85.2664 109.598 83.7637 110.136 81.2273 110.832C81.0568 110.959 80.9715 111.096 80.9715 111.244L80.6837 111.117C80.2148 111.117 78.2219 111.751 74.7049 113.017L74.4172 113.144V113.017C72.7759 113.566 70.751 114.337 68.3425 115.329H67.767L67.735 114.917C67.7989 114.727 69.664 113.64 73.3301 111.656C73.7351 111.529 74.3426 111.17 75.1525 110.579C75.1739 110.664 75.2378 110.706 75.3444 110.706L79.0851 108.268V108.141C76.1224 109.576 71.7315 111.107 65.9126 112.732C64.4418 113.281 61.1487 114.231 56.0331 115.582C54.0082 116.406 51.8128 117.176 49.4468 117.894L49.0951 117.482V117.355C49.0951 117.25 50.5339 116.479 53.4114 115.044C57.1415 113.06 59.8591 111.846 61.5643 111.402C61.543 111.17 62.3743 110.716 64.0582 110.041V110.168C65.3157 110.062 66.1577 109.84 66.584 109.503C66.5627 109.228 66.4348 108.859 66.2003 108.394L67.7989 107.603C67.9694 107.687 68.108 107.729 68.2146 107.729C69.8984 107.138 70.7084 106.463 70.6445 105.703L70.6125 105.418C70.3993 105.418 68.9499 105.967 66.2643 107.064L64.6337 107.444C64.6124 107.36 64.5591 107.318 64.4738 107.318C64.218 107.655 63.44 108.109 62.1398 108.679C61.7775 108.553 61.5856 108.415 61.5643 108.268L61.5324 108.014C65.1559 105.924 69.0778 103.792 73.2982 101.618C73.2982 101.724 73.3408 101.776 73.426 101.776C73.5113 101.565 75.1312 100.7 78.2858 99.1798C78.8826 98.7365 81.0461 97.3854 84.7762 95.1267H85.1599C85.3517 95.1478 85.4476 95.2428 85.4476 95.4116L85.4796 95.5383C85.2025 95.5383 83.7211 96.8893 81.0354 99.5914V99.7497H81.1633C81.206 99.6231 82.7833 98.8103 85.8952 97.3115C88.5809 95.9816 91.1493 94.5356 93.6005 92.9734C96.1796 91.6013 98.2152 90.4191 99.7072 89.427H99.8351L99.8032 89.047C96.1157 90.4825 94.176 91.2002 93.9842 91.2002C93.9842 91.2846 93.8563 91.3796 93.6005 91.4852C93.5792 91.3796 93.5259 91.3269 93.4407 91.3269C93.462 91.538 92.279 92.0868 89.8918 92.9734H89.7639C89.5934 92.9734 89.4974 92.8784 89.4761 92.6885V92.5618C89.5188 92.2663 90.414 91.728 92.1618 90.9469C92.652 90.5036 93.5686 89.9547 94.9114 89.3003C97.8742 87.3582 100.134 86.0494 101.69 85.3738C102.755 84.6983 103.736 84.0228 104.631 83.3473C105.505 83.3473 109.086 81.0885 115.374 76.571C115.374 76.4654 115.981 76.0116 117.196 75.2094C117.558 75.3572 117.75 75.4944 117.772 75.621C117.793 75.811 116.908 76.7188 115.118 78.3442L110.482 82.9356H110.77C110.898 82.9356 112.326 82.0807 115.054 80.3708C116.844 79.1886 117.836 78.5975 118.027 78.5975C118.645 78.872 119.21 79.0092 119.722 79.0092C120.979 79.0092 121.566 78.4709 121.48 77.3943C122.205 77.1832 122.567 77.046 122.567 76.9826C123.441 77.2571 123.953 77.3943 124.102 77.3943H125.477L125.381 76.571C125.53 76.3388 125.605 76.2016 125.605 76.1593H125.477L125.669 75.2094H125.541C125.477 74.6183 125.839 74.0378 126.628 73.4678C129.207 71.589 131.541 70.143 133.63 69.1297C136.848 66.8498 138.532 65.2666 138.681 64.38C138.724 64.0844 138.735 63.7678 138.713 63.43C138.266 63.3456 138.031 63.2506 138.01 63.145C133.001 64.5594 128.941 66.1427 125.829 67.8948C124.315 68.8658 122.226 69.858 119.562 70.8713C117.899 71.8424 114.947 73.0667 110.706 74.5444L110.674 74.4178L110.418 74.5444C110.247 74.5444 110.152 74.4072 110.13 74.1328C110.109 73.9006 110.791 73.4045 112.176 72.6445C114.649 71.0824 116.738 69.4569 118.443 67.7681H118.155C114.468 69.6469 110.876 71.2302 107.381 72.5179C107.402 72.6656 105.771 73.3834 102.489 74.6711C96.8191 76.381 92.9718 77.236 90.9468 77.236C86.897 77.236 83.8064 75.7477 81.6749 72.7712H81.8348C81.4724 72.3068 81.0354 71.589 80.5239 70.618H80.396L80.428 71.0296C80.5132 71.0296 80.5559 71.0718 80.5559 71.1563H80.428C80.833 72.5918 81.4617 73.9428 82.3143 75.2094C82.5062 75.2094 82.6234 75.4416 82.666 75.906V76.1593L81.9946 76.286C79.65 74.5339 77.8489 71.7368 76.5913 67.8948L76.4954 66.6915L76.3355 66.4065H76.4634C76.2503 66.0054 76.1117 65.4249 76.0478 64.665C75.792 61.794 75.8773 59.7147 76.3035 58.427C76.3035 58.3214 76.2609 58.2686 76.1757 58.2686L76.6552 56.1154H76.5274L79.7566 47.7242C81.5044 44.7055 82.9538 42.5312 84.1048 41.2012C84.0835 40.9901 84.6909 40.1352 85.9272 38.6364C86.4814 38.1297 87.2487 37.1376 88.2292 35.6599C88.421 35.6599 89.636 34.4355 91.874 31.9867L92.8012 31.4484C92.9931 31.554 93.1316 31.6067 93.2169 31.6067L93.2488 31.9867L90.819 35.1216C89.6466 37.0003 88.7727 38.5836 88.1972 39.8713C88.4104 39.8713 89.0498 39.238 90.1156 37.9714C93.3128 34.7416 96.8191 31.5751 100.634 28.4719C103.128 26.2976 106.006 24.4082 109.267 22.8039C111.42 21.3051 112.901 20.5346 113.711 20.4923C113.711 20.3023 113.615 20.2074 113.423 20.2074C109.949 21.1151 106.155 22.6033 102.041 24.6721C100.166 26.4876 98.9825 27.3953 98.4923 27.3953C98.3644 27.2264 98.2898 27.0892 98.2685 26.9837C98.3538 26.6248 99.281 25.7698 101.05 24.4188C109.15 19.2891 113.903 16.7137 115.31 16.6925C119.423 14.6238 122.194 13.5894 123.623 13.5894C124.795 13.0827 127.171 12.5867 130.752 12.1011C130.838 12.1011 130.891 12.1433 130.912 12.2278C131.701 12.0378 132.788 11.9428 134.173 11.9428H134.461C134.546 11.9428 134.578 11.9006 134.557 11.8161ZM155.627 16.2809C156.927 16.5342 157.598 16.9459 157.641 17.5158L157.705 18.0541L157.065 18.7191C155.211 18.3813 154.273 18.0225 154.252 17.6425L154.188 17.2308C154.593 16.5975 155.073 16.2809 155.627 16.2809Z" fill="url(#paint1_linear_17_36095)"/>
<path d="M35.6988 2C35.8693 2.08444 36.0505 2.12666 36.2423 2.12666L36.2743 2.50664C35.2725 6.62308 34.4305 9.70514 33.7485 11.7528C33.7698 11.8372 33.4927 13.4416 32.9172 16.5659L33.0451 16.8192L32.9492 17.0725H33.077C32.9918 17.9803 32.7467 19.078 32.3417 20.3657V20.4923L32.5335 21.1256H32.4056C32.5122 21.2945 32.5655 21.4212 32.5655 21.5056C32.4376 21.8223 32.2991 22.5822 32.1498 23.7855C32.0646 23.7855 32.022 23.8277 32.022 23.9122V24.0388C32.4909 23.6166 32.7893 23.11 32.9172 22.5189C32.9172 22.4345 32.8746 22.3922 32.7893 22.3922C33.4074 20.6401 34.1854 19.3313 35.1233 18.4658H35.6348L35.8267 19.0991C35.8693 19.7324 35.6775 21.0412 35.2512 23.0255L35.379 24.2921L35.2831 24.5455H35.411C35.2831 25.031 35.102 26.3398 34.8675 28.4719C35.1659 28.3452 35.6135 27.6275 36.2103 26.3187C36.3169 26.3187 36.5514 26.1076 36.9137 25.6854H37.1695C37.6384 25.6854 37.9475 25.8543 38.0967 26.192L38.1606 26.952C38.0541 27.6486 37.3613 30.3929 36.0824 35.1849C36.1038 35.5226 36.0291 35.6915 35.8586 35.6915L36.0185 35.9448C35.102 38.3725 34.5051 40.3146 34.228 41.7712C34.3986 41.7712 34.8249 41.3068 35.5069 40.3779C36.0824 39.3647 36.594 38.858 37.0416 38.858H37.2974L37.3294 39.1113C37.3507 39.3224 36.8285 40.6313 35.7627 43.0378C34.7609 44.3044 34.3026 45.4443 34.3879 46.4576C34.6863 46.9431 34.8568 47.3653 34.8995 47.7242C34.7716 48.3575 34.26 49.3708 33.3648 50.764L32.8532 52.1573H32.9811C32.4909 53.065 32.0859 54.2472 31.7662 55.7038H31.8941C31.6809 56.1893 31.4145 57.4981 31.0948 59.6302C30.434 60.9179 29.8159 62.6912 29.2404 64.9499L29.0166 65.0766H28.7608L28.6968 64.3166L29.2404 60.6435C29.3256 60.6435 29.3683 60.6013 29.3683 60.5169V60.3902C29.3469 60.3058 29.2937 60.2635 29.2084 60.2635C29.2084 60.0947 29.4322 59.1658 29.8798 57.477C29.9864 56.9282 30.0397 56.5904 30.0397 56.4637C29.4215 57.1815 29.1551 58.0681 29.2404 59.1236C28.4304 60.5802 28.0254 61.7201 28.0254 62.5434C27.8975 62.5645 27.5778 63.3245 27.0663 64.8233H26.9384L27.0982 65.0766C27.0982 65.1188 27.0343 65.4144 26.9064 65.9632L27.0663 66.2165C26.171 68.032 25.4783 70.3119 24.9881 73.0562C25.0094 73.4784 24.2953 76.476 22.8459 82.049C22.5475 83.6534 22.4303 84.8355 22.4942 85.5955H22.6221C22.7926 85.6166 22.8885 85.7011 22.9099 85.8488C22.5688 86.7988 22.409 87.3476 22.4303 87.4954C22.5795 87.4954 23.4214 86.4821 24.9561 84.4556C27.8975 80.8035 29.656 78.4814 30.2315 77.4893L33.7165 73.5628V73.4362L33.3328 73.6895C33.3328 73.605 33.2902 73.5628 33.2049 73.5628C31.585 75.0405 30.1889 76.1382 29.0166 76.856C28.846 76.7715 28.7182 76.7293 28.6329 76.7293L28.6009 76.3493C30.7964 74.2383 32.3417 72.4229 33.2369 70.903C33.4927 70.8819 34.5051 69.8264 36.2743 67.7365C37.2761 66.871 37.9368 66.1954 38.2566 65.7099C39.0452 65.0133 39.9937 63.6622 41.1021 61.6568C42.8499 59.9258 43.9263 58.5325 44.3313 57.477C46.6546 55.0071 48.1466 53.065 48.8074 51.6507C49.5321 50.3841 50.3208 49.2019 51.1733 48.1042C52.1965 46.7743 53.2409 45.5921 54.3066 44.5577C55.3084 43.1222 56.5873 41.6445 58.1433 40.1246C58.6975 39.0058 59.9551 37.7814 61.916 36.4515C62.0652 35.9448 62.3743 35.6915 62.8432 35.6915L63.1629 36.0715C63.1629 36.2193 62.8859 36.5148 62.3317 36.9581C60.9675 38.5203 60.1362 39.7024 59.8378 40.5046C59.6886 40.5046 59.3796 40.8846 58.9106 41.6445C58.1859 42.2567 57.685 42.89 57.4079 43.5444C56.5767 44.5366 55.8946 45.4654 55.3617 46.3309H55.4896C55.5749 46.3309 56.161 45.6977 57.2481 44.4311C57.8449 43.7344 58.7295 43.1433 59.9018 42.6578C60.5199 42.0878 61.202 41.159 61.948 39.8713C62.2677 39.7024 63.0777 38.7736 64.3779 37.0848C65.5715 36.1982 66.6479 34.8893 67.6071 33.1583C69.2057 31.2584 70.3887 30.0763 71.156 29.6118C71.4971 29.1474 72.0512 28.683 72.8186 28.2186C74.4172 26.6565 75.3977 25.7698 75.76 25.5587V25.4321H75.3764C74.1827 26.1709 73.4687 26.7198 73.2342 27.0787C72.4242 27.0787 71.1027 27.6275 69.2696 28.7252H69.0139C68.822 28.5141 68.7261 28.3875 68.7261 28.3452C69.7705 27.6275 70.8043 26.7409 71.8274 25.6854C71.9766 25.6854 72.2218 25.5587 72.5628 25.3054H72.6907L72.5308 25.0521L72.7866 24.9254V25.1788C73.2555 24.7777 73.9483 24.3132 74.8648 23.7855C75.419 23.4477 75.6854 23.1522 75.6641 22.8989L75.9199 23.0255C75.9199 22.8355 76.5593 22.3289 77.8382 21.5056C78.2219 20.5768 79.2024 19.5635 80.7797 18.4658C83.2948 15.6793 84.8295 14.286 85.3837 14.286C85.6821 13.716 86.6306 12.8716 88.2292 11.7528C88.826 11.3306 89.2843 11.1195 89.604 11.1195C89.7745 11.1406 89.8598 11.2251 89.8598 11.3728L89.8918 11.6261C87.3127 14.2016 86.0444 15.8059 86.0871 16.4392C85.9592 16.4392 85.8419 16.5659 85.7354 16.8192L85.7673 16.9459H85.8952L88.6768 15.1726C90.1475 13.3994 91.4158 12.3017 92.4815 11.8795C95.7427 9.51515 97.5544 8.33299 97.9168 8.33299C98.0447 8.33299 98.1832 8.45965 98.3324 8.71297L98.3644 8.96629C97.5331 10.2329 97.1282 10.9506 97.1495 11.1195C99.3023 9.85291 100.56 9.21961 100.922 9.21961C101.114 9.43071 101.221 9.59959 101.242 9.72625C100.645 11.3939 99.7605 12.5339 98.5882 13.1461C98.6095 13.2305 98.4284 13.5683 98.0447 14.1593H98.4284C99.2596 13.8638 100.176 13.1038 101.178 11.8795C103.096 10.7606 104.62 9.66292 105.75 8.58631C105.942 8.58631 106.581 8.16411 107.668 7.31971L111.921 4.91318L112.656 4.40654C113.082 4.51209 113.306 4.63875 113.327 4.78652L113.359 5.1665C112.912 5.1665 111.441 6.34866 108.947 8.71297C108.18 9.47293 107.7 9.85291 107.508 9.85291C107.018 10.5284 106.709 10.8662 106.581 10.8662C105.516 11.7317 104.066 13.1672 102.233 15.1726C101.721 16.0381 100.901 16.9248 99.7712 17.8325C97.9594 19.3946 95.8706 21.7589 93.5046 24.9254C92.6307 26.5087 90.8083 28.5775 88.0374 31.1318C88.0374 31.0473 87.9947 31.0051 87.9095 31.0051C87.9308 31.2795 87.5791 31.7017 86.8544 32.2717C86.8544 32.3773 86.4814 32.9261 85.7354 33.9183C85.6927 34.1505 85.4156 34.446 84.9041 34.8049C84.9254 35.1216 83.8383 36.3459 81.6429 38.478C80.4919 39.998 79.8312 40.7579 79.6606 40.7579C79.682 40.8846 79.1064 41.5179 77.9341 42.6578C77.9768 43.1433 76.8471 44.4099 74.5451 46.4576C74.5664 46.6265 74.1507 47.2598 73.2982 48.3575C73.3195 48.5264 73.2022 48.6108 72.9465 48.6108V48.7375H73.2022C73.2236 48.6108 73.895 47.9775 75.2165 46.8376V46.7109C75.3018 46.7109 75.3444 46.7531 75.3444 46.8376C75.5149 46.8376 76.4208 45.9087 78.062 44.0511C78.2112 44.0511 78.7974 43.5444 79.8205 42.5312L82.3783 40.8846C82.3996 41.0535 82.5381 41.1379 82.7939 41.1379V41.2646C81.0887 42.6789 78.7548 45.2121 75.792 48.8641C74.5557 50.0463 73.5113 51.2707 72.6587 52.5373C72.4882 52.5373 71.7102 53.4239 70.3247 55.1971C67.6604 57.7726 66.3389 59.1236 66.3602 59.2503C65.8486 59.7358 65.1559 60.5802 64.282 61.7835C63.6425 62.6279 62.8645 64.0211 61.948 65.9632C61.3938 67.1243 60.2535 68.6864 58.527 70.6496C57.0562 73.014 56.0971 74.7028 55.6495 75.716C54.2214 77.7215 52.5375 79.8747 50.5978 82.1757C50.5552 82.8723 50.0756 83.6745 49.1591 84.5822H48.7754C48.7541 84.4133 48.7008 84.3289 48.6156 84.3289C48.9779 82.9568 49.6813 81.268 50.7257 79.2625L50.6938 79.0092C48.9673 80.5713 48.1147 81.5424 48.136 81.9224C47.4539 83.0412 46.6866 83.97 45.834 84.7089C43.1483 88.6565 41.2406 91.2319 40.1109 92.4351C40.1323 92.7096 39.5354 93.6384 38.3205 95.2217L38.0008 95.855H38.1287C40.452 93.7228 41.7948 92.5829 42.1572 92.4351C42.1785 92.5196 42.2318 92.5618 42.317 92.5618L42.2851 92.4351C42.4769 92.5196 42.6154 92.5618 42.7007 92.5618L42.7327 93.0684C42.4343 93.0684 42.0826 93.4484 41.6776 94.2084C41.5497 94.2084 41.3685 94.5461 41.1341 95.2217C39.0452 97.7549 37.8729 99.0214 37.6171 99.0214L37.777 99.2748C36.2849 100.964 35.3897 101.892 35.0913 102.061C35.1126 102.251 34.633 102.631 33.6525 103.201C33.141 103.771 32.6934 104.447 32.3097 105.228C32.1179 105.228 31.1161 106.494 29.3043 109.028C27.6844 110.885 26.8744 111.856 26.8744 111.941C26.2137 112.447 25.425 113.63 24.5085 115.487C22.6967 117.092 21.8228 118.274 21.8867 119.034H21.7589C21.5244 118.865 21.3859 118.78 21.3432 118.78H21.2153C21.2366 119.118 21.0874 119.371 20.7677 119.54L20.6079 119.287C21.5031 116.775 22.6115 114.284 23.933 111.814H23.8051C21.3326 114.305 20.107 115.952 20.1283 116.754C19.297 118.063 18.7641 118.78 18.5297 118.907C18.2739 119.35 17.6451 119.857 16.6433 120.427C16.2596 120.828 15.6308 122.01 14.7569 123.973C13.7765 125.219 13.2862 125.894 13.2862 126H12.7747C12.5189 126 12.2844 125.282 12.0713 123.847H11.9434C12.9452 121.609 13.3821 119.836 13.2542 118.527C13.4887 117.809 13.6805 117.007 13.8297 116.121H13.7018C13.2969 116.142 12.5295 117.577 11.3998 120.427C11.2506 120.427 10.9949 120.511 10.6325 120.68C10.121 120.533 9.84386 120.237 9.80123 119.794C10.1849 116.479 10.3554 114.537 10.3128 113.967L10.2808 113.841L9.0339 114.221C8.75681 114.221 8.46906 113.756 8.17065 112.827H8.29854C8.27722 112.743 8.22393 112.701 8.13868 112.701C8.24525 111.687 8.33051 111.181 8.39445 111.181C8.24525 110.653 8.08539 110.231 7.91487 109.914C7.74435 109.914 7.05162 110.336 5.83667 111.181H5.70878C5.26117 111.181 4.94145 110.505 4.74961 109.154V109.028C4.62173 107.571 4.6537 106.431 4.84553 105.608L4.20609 102.695C4.20609 101.808 4.18477 101.09 4.14214 100.541H4.27003C3.95031 99.1903 3.46007 98.5148 2.79931 98.5148C2.47958 98.4304 2.21315 98.2615 2 98.0082C2.55419 94.8206 2.88457 92.2874 2.99114 90.4086C3.56664 89.4375 3.96097 88.2131 4.17411 86.7354H4.04623C4.19543 85.3633 4.44055 84.2234 4.78159 83.3156C4.76027 83.0623 5.11197 81.2468 5.83667 77.8693C6.11376 75.716 6.67861 73.9006 7.5312 72.4229C7.87224 72.4229 8.47971 70.6496 9.35362 67.1032C9.92912 65.8788 10.4727 63.81 10.9842 60.8968L11.24 60.7702H11.4958C11.6237 60.7702 11.7622 60.8968 11.9114 61.1502L11.7835 61.4035H11.9114L11.6237 62.1634L11.7515 62.4168C11.5384 62.4168 11.4318 62.6279 11.4318 63.0501H11.5597C10.8989 66.1321 10.5792 67.8631 10.6005 68.2431L10.6325 68.3698H10.7604L11.7515 65.2033C12.6041 63.1767 13.0091 61.9946 12.9665 61.6568L12.7427 60.5169C12.8493 59.8836 12.9025 59.5036 12.9025 59.3769H12.7747L12.8706 59.1236V58.9969C12.8493 58.9125 12.796 58.8703 12.7107 58.8703C12.7107 58.6803 13.1903 57.3292 14.1495 54.8172C14.725 53.1706 15.3431 50.0041 16.0039 45.3177C16.0891 45.3177 16.1531 45.0644 16.1957 44.5577H16.0678C16.0891 43.9455 16.2383 43.1856 16.5154 42.2778H16.2596C16.0678 43.65 15.7587 44.4944 15.3324 44.811V44.9377L15.4923 45.191C15.2152 45.191 15.0553 45.8665 15.0127 47.2176C14.5438 48.2308 14.1281 49.2863 13.7658 50.3841C13.6379 51.144 13.4567 51.524 13.2223 51.524L12.6787 51.2707L13.3182 48.2308L13.1583 47.9775C13.542 46.4576 13.8617 44.6844 14.1175 42.6578C14.0322 42.6578 13.9789 42.6156 13.9576 42.5312C14.9168 40.8424 15.3538 39.4491 15.2685 38.3514C15.8866 37.5703 16.1317 36.5148 16.0039 35.1849C17.3041 32.3984 18.0714 30.4985 18.3059 29.4852C18.9666 28.5563 19.5847 26.7831 20.1602 24.1655C20.48 22.9622 21.226 21.2734 22.3983 19.0991C23.5706 15.637 24.3166 13.5683 24.6364 12.8927C25.8726 11.3728 26.5334 10.6129 26.6186 10.6129H26.8744C27.2368 10.7817 27.4286 11.0351 27.4499 11.3728C27.5139 11.9428 27.2368 13.1672 26.6186 15.046L26.6826 15.5526H26.8105L26.7146 15.8059L26.7465 16.3126C26.7465 16.397 26.7892 16.4392 26.8744 16.4392L26.7785 16.6925L26.9703 17.3258C26.8851 17.3258 26.8425 17.3681 26.8425 17.4525H26.9703C27.1195 16.6714 27.9828 15.3626 29.5601 13.526C29.7732 11.605 30.4127 10.1696 31.4784 9.21961C31.7982 9.21961 32.3523 8.16411 33.141 6.05312C33.5673 5.01873 34.4199 3.66769 35.6988 2Z" stroke="black" stroke-width="2" mask="url(#path-1-outside-1_17_36095)"/>
<path d="M134.557 11.8161C134.642 11.8161 134.696 11.8584 134.717 11.9428L135.388 11.8161H136.731C138.628 11.8161 140.355 12.0906 141.911 12.6394C141.953 13.2516 141.388 13.6527 140.216 13.8427C139.406 14.476 138.98 14.8876 138.937 15.0776L138.969 15.2043C140.802 15.3309 141.729 15.4682 141.751 15.6159L142.007 15.4893L142.55 15.6159L143.253 15.4893C143.531 15.7004 144.447 15.922 146.003 16.1542L146.834 16.0276C146.856 16.3442 148.39 16.6609 151.438 16.9775L151.758 17.3575L151.79 17.6425C151.811 18.0225 151.204 18.3813 149.968 18.7191L149.936 18.5924C147.676 19.859 146.174 20.4923 145.428 20.4923C144.596 20.3023 144.095 20.2074 143.925 20.2074C143.626 20.8407 143.424 21.1573 143.317 21.1573H142.774L141.815 21.0306V21.1573L141.527 21.0306H141.399L141.559 21.284C141.324 21.284 141.218 21.5162 141.239 21.9806C141.602 21.9806 141.783 22.0228 141.783 22.1073L142.966 21.8539L143.285 21.9806C143.413 21.8962 143.584 21.8539 143.797 21.8539L144.085 21.9806C144.063 21.8962 144.106 21.8539 144.213 21.8539C144.234 21.9384 144.287 21.9806 144.373 21.9806L144.341 21.8539L145.587 22.1073L147.218 21.8539L147.25 21.9806L147.474 21.8539C147.687 21.9384 147.836 21.9806 147.921 21.9806L147.889 21.8539C149.36 21.8539 150.128 22.2128 150.191 22.9305L149.008 23.5955V23.4688C148.731 23.5533 148.593 23.6377 148.593 23.7222C148.508 23.7222 148.465 23.6799 148.465 23.5955C148.316 23.5955 147.826 23.7327 146.994 24.0071V23.8805C146.142 24.0916 145.513 24.271 145.108 24.4188C145.108 24.3344 145.065 24.2921 144.98 24.2921C144.255 24.8832 143.371 25.2843 142.326 25.4954C141.729 26.1076 139.854 27.0575 136.699 28.3452L136.731 28.4719C136.774 28.6619 136.87 28.7569 137.019 28.7569H137.978C138.426 28.7569 138.649 28.6619 138.649 28.4719C139.076 28.6408 139.321 28.8202 139.385 29.0102L139.417 29.2952C139.481 30.0129 139.065 30.4668 138.17 30.6568L138.138 30.4985L137.211 30.7835V30.6568C137.062 30.6568 135.868 31.2373 133.63 32.3984H133.086C132.553 32.3984 132.084 32.2612 131.68 31.9867H131.424C130.997 33.5277 130.294 34.2983 129.314 34.2983C127.161 35.1427 125.37 36.0926 123.942 37.1481C123.644 37.1481 123.143 37.6864 122.44 38.763C122.333 38.763 121.896 38.9425 121.129 39.3013V39.1747C120.468 39.5969 119.317 40.5046 117.676 41.8979H117.132C116.94 41.8979 116.834 41.8029 116.812 41.6129L116.78 41.4862C117.676 40.1352 118.624 38.8686 119.626 37.6864L120.841 35.7865C116.898 38.2353 113.967 40.2196 112.049 41.7395C111.175 43.4072 109.821 44.6316 107.988 45.4127L108.02 45.5393C108.02 45.6449 108.063 45.6977 108.148 45.6977C108.233 46.6687 107.199 47.3864 105.047 47.8509C103.171 49.1386 101.743 50.4052 100.762 51.6507C99.6326 52.5584 98.9399 53.5506 98.6841 54.6272C98.1513 55.0494 97.7996 55.6827 97.629 56.5271C97.4798 56.5271 97.352 56.6643 97.2454 56.9387C97.288 57.1076 97.3839 57.192 97.5331 57.192H97.8209C98.5882 57.192 100.88 56.4215 104.695 54.8805C106.123 54.4372 107.999 53.9411 110.322 53.3922L110.354 53.5506C111.569 53.3395 112.507 53.1073 113.168 52.8539V53.0123C115.555 52.379 119.178 51.5662 124.038 50.5741C124.017 50.4685 124.059 50.4157 124.166 50.4157L124.198 50.5741C125.69 50.1096 127.385 49.7402 129.282 49.4658L129.25 49.3391C128.973 49.3391 128.6 49.2547 128.131 49.0858C128.045 49.0858 128.013 49.128 128.035 49.2125C127.502 49.128 127.129 49.0858 126.916 49.0858C126.17 49.0858 125.402 49.1702 124.614 49.3391V49.2125C121.352 49.5713 118.741 49.9724 116.78 50.4157V50.2891C115.331 50.8379 114.212 51.1124 113.423 51.1124L113.232 50.8274V50.7007C113.21 50.4263 116.322 49.4763 122.567 47.8509V47.9775L127.523 46.6476V46.7743C130.23 46.0565 132.244 45.6027 133.566 45.4127V45.286L133.822 45.4127C133.992 45.4127 134.269 45.3177 134.653 45.1277V45.286C135.015 45.1171 135.601 44.9799 136.411 44.8744V45.001L144.66 43.7978V43.9244L144.916 43.7978H147.378L148.177 43.6394C148.348 43.7239 148.998 43.8189 150.128 43.9244C150.49 43.84 150.81 43.7978 151.087 43.7978C151.172 43.7978 151.215 43.84 151.215 43.9244L151.886 43.7978H152.717L153.389 43.9244V43.7978L154.795 44.2094V44.0511C156.565 44.4311 157.769 44.7477 158.408 45.001V44.8744C160.455 45.4232 162.234 46.4154 163.748 47.8509C164.856 49.7508 165.602 50.9224 165.986 51.3657C166.284 51.999 166.689 52.5478 167.201 53.0123C167.563 53.8355 167.798 54.8699 167.904 56.1154V56.2421C167.925 56.4532 167.893 56.6326 167.808 56.7804C167.936 56.9704 168 57.1076 168 57.192C167.893 57.192 167.84 57.2343 167.84 57.3187H168C167.446 60.6752 166.902 62.3534 166.369 62.3534C166.391 62.5856 165.911 63.3034 164.931 64.5066C164.867 64.9288 164.099 66.0582 162.629 67.8948L162.277 68.4331C162.32 68.9608 161.755 69.7736 160.582 70.8713C159.133 72.1379 158.419 72.9506 158.44 73.3095C157.311 74.5761 156.746 75.2622 156.746 75.3677C155.254 77.4365 153.804 79.1464 152.398 80.4974C152.419 80.6452 152.206 80.8669 151.758 81.1624C151.012 81.9224 149.989 82.6929 148.689 83.474C147.197 84.8039 146.003 85.7116 145.108 86.1971C145.108 86.0916 145.065 86.0388 144.98 86.0388C143.786 87.0732 142.71 87.8437 141.751 88.3504C141.751 88.4559 141.442 88.6353 140.824 88.8887C140.653 88.8042 140.472 88.762 140.28 88.762L140.248 88.477C142.529 86.9149 144.319 85.5638 145.619 84.4239C148.859 81.0463 150.65 79.1042 150.991 78.5975C152.611 77.2465 153.762 75.8533 154.444 74.4178H154.316C151.758 76.3388 150.479 77.3732 150.479 77.5209C149.776 78.4498 148.838 79.1253 147.666 79.5475C146.046 80.983 144.074 82.334 141.751 83.6006C140.856 84.5717 139.822 85.3 138.649 85.7855C138.671 85.9966 137.989 86.6721 136.603 87.8121C135.452 88.4031 133.971 89.5325 132.159 91.2002L129.569 92.9734C129.164 93.5434 128.493 94.1239 127.555 94.715V94.8733L131.36 93.1001C131.743 92.9734 133.044 92.2979 135.26 91.0735C135.623 91.0735 135.804 91.0313 135.804 90.9469C136.102 91.0313 136.305 91.2108 136.411 91.4852C135.175 92.4351 132.841 93.9656 129.409 96.0766C129.409 95.9922 129.367 95.9499 129.282 95.9499C129.111 96.3721 127.758 97.1427 125.221 98.2615C123.814 99.1692 121.086 100.657 117.036 102.726C117.015 102.621 116.962 102.568 116.876 102.568C114.425 104.362 112.294 105.587 110.482 106.241L110.162 105.829C110.226 105.639 111.345 104.784 113.519 103.265L114.542 102.315H114.414C114.223 102.315 113.605 102.589 112.56 103.138L111.153 102.726H110.45C109.022 102.853 108.052 103.254 107.54 103.93C107.008 104.795 105.729 105.745 103.704 106.779C103.171 107.349 101.434 108.342 98.4923 109.756L94.6237 112.606L94.3679 112.479C93.6219 112.711 92.3963 113.345 90.6911 114.379C89.0925 115.223 87.0675 116.078 84.6163 116.944C83.5506 117.387 80.7584 118.284 76.2396 119.635C76.2609 119.741 76.2289 119.794 76.1437 119.794C76.1224 119.688 76.0584 119.635 75.9519 119.635C75.9732 119.889 75.1952 120.3 73.6179 120.87L73.3301 120.744L73.0743 120.87C72.8399 120.828 72.6374 120.606 72.4669 120.205L78.1899 116.944C79.1917 116.099 80.8756 115.012 83.2415 113.682C83.3268 113.682 83.412 113.545 83.4973 113.271L84.1687 113.429C84.254 113.429 84.2966 113.376 84.2966 113.271C84.4884 113.376 84.9147 113.471 85.5755 113.556C86.492 113.556 86.897 113.06 86.7905 112.067C87.6857 111.877 88.112 111.519 88.0693 110.991L87.9095 110.706L87.8775 110.579C87.8775 110.495 87.9201 110.453 88.0054 110.453L87.8455 110.168V110.041C90.1049 109.07 92.4922 107.708 95.0073 105.956C95.3484 105.956 95.7001 105.734 96.0624 105.291L96.0304 105.164L93.1529 106.368L93.121 106.241C92.6094 106.241 90.9362 106.959 88.1013 108.394C87.8669 108.648 87.0782 108.922 85.7354 109.218C85.2664 109.598 83.7637 110.136 81.2273 110.832C81.0568 110.959 80.9715 111.096 80.9715 111.244L80.6837 111.117C80.2148 111.117 78.2219 111.751 74.7049 113.017L74.4172 113.144V113.017C72.7759 113.566 70.751 114.337 68.3425 115.329H67.767L67.735 114.917C67.7989 114.727 69.664 113.64 73.3301 111.656C73.7351 111.529 74.3426 111.17 75.1525 110.579C75.1739 110.664 75.2378 110.706 75.3444 110.706L79.0851 108.268V108.141C76.1224 109.576 71.7315 111.107 65.9126 112.732C64.4418 113.281 61.1487 114.231 56.0331 115.582C54.0082 116.406 51.8128 117.176 49.4468 117.894L49.0951 117.482V117.355C49.0951 117.25 50.5339 116.479 53.4114 115.044C57.1415 113.06 59.8591 111.846 61.5643 111.402C61.543 111.17 62.3743 110.716 64.0582 110.041V110.168C65.3157 110.062 66.1577 109.84 66.584 109.503C66.5627 109.228 66.4348 108.859 66.2003 108.394L67.7989 107.603C67.9694 107.687 68.108 107.729 68.2146 107.729C69.8984 107.138 70.7084 106.463 70.6445 105.703L70.6125 105.418C70.3993 105.418 68.9499 105.967 66.2643 107.064L64.6337 107.444C64.6124 107.36 64.5591 107.318 64.4738 107.318C64.218 107.655 63.44 108.109 62.1398 108.679C61.7775 108.553 61.5856 108.415 61.5643 108.268L61.5324 108.014C65.1559 105.924 69.0778 103.792 73.2982 101.618C73.2982 101.724 73.3408 101.776 73.426 101.776C73.5113 101.565 75.1312 100.7 78.2858 99.1798C78.8826 98.7365 81.0461 97.3854 84.7762 95.1267H85.1599C85.3517 95.1478 85.4476 95.2428 85.4476 95.4116L85.4796 95.5383C85.2025 95.5383 83.7211 96.8893 81.0354 99.5914V99.7497H81.1633C81.206 99.6231 82.7833 98.8103 85.8952 97.3115C88.5809 95.9816 91.1493 94.5356 93.6005 92.9734C96.1796 91.6013 98.2152 90.4191 99.7072 89.427H99.8351L99.8032 89.047C96.1157 90.4825 94.176 91.2002 93.9842 91.2002C93.9842 91.2846 93.8563 91.3796 93.6005 91.4852C93.5792 91.3796 93.5259 91.3269 93.4407 91.3269C93.462 91.538 92.279 92.0868 89.8918 92.9734H89.7639C89.5934 92.9734 89.4974 92.8784 89.4761 92.6885V92.5618C89.5188 92.2663 90.414 91.728 92.1618 90.9469C92.652 90.5036 93.5686 89.9547 94.9114 89.3003C97.8742 87.3582 100.134 86.0494 101.69 85.3738C102.755 84.6983 103.736 84.0228 104.631 83.3473C105.505 83.3473 109.086 81.0885 115.374 76.571C115.374 76.4654 115.981 76.0116 117.196 75.2094C117.558 75.3572 117.75 75.4944 117.772 75.621C117.793 75.811 116.908 76.7188 115.118 78.3442L110.482 82.9356H110.77C110.898 82.9356 112.326 82.0807 115.054 80.3708C116.844 79.1886 117.836 78.5975 118.027 78.5975C118.645 78.872 119.21 79.0092 119.722 79.0092C120.979 79.0092 121.566 78.4709 121.48 77.3943C122.205 77.1832 122.567 77.046 122.567 76.9826C123.441 77.2571 123.953 77.3943 124.102 77.3943H125.477L125.381 76.571C125.53 76.3388 125.605 76.2016 125.605 76.1593H125.477L125.669 75.2094H125.541C125.477 74.6183 125.839 74.0378 126.628 73.4678C129.207 71.589 131.541 70.143 133.63 69.1297C136.848 66.8498 138.532 65.2666 138.681 64.38C138.724 64.0844 138.735 63.7678 138.713 63.43C138.266 63.3456 138.031 63.2506 138.01 63.145C133.001 64.5594 128.941 66.1427 125.829 67.8948C124.315 68.8658 122.226 69.858 119.562 70.8713C117.899 71.8424 114.947 73.0667 110.706 74.5444L110.674 74.4178L110.418 74.5444C110.247 74.5444 110.152 74.4072 110.13 74.1328C110.109 73.9006 110.791 73.4045 112.176 72.6445C114.649 71.0824 116.738 69.4569 118.443 67.7681H118.155C114.468 69.6469 110.876 71.2302 107.381 72.5179C107.402 72.6656 105.771 73.3834 102.489 74.6711C96.8191 76.381 92.9718 77.236 90.9468 77.236C86.897 77.236 83.8064 75.7477 81.6749 72.7712H81.8348C81.4724 72.3068 81.0354 71.589 80.5239 70.618H80.396L80.428 71.0296C80.5132 71.0296 80.5559 71.0718 80.5559 71.1563H80.428C80.833 72.5918 81.4617 73.9428 82.3143 75.2094C82.5062 75.2094 82.6234 75.4416 82.666 75.906V76.1593L81.9946 76.286C79.65 74.5339 77.8489 71.7368 76.5913 67.8948L76.4954 66.6915L76.3355 66.4065H76.4634C76.2503 66.0054 76.1117 65.4249 76.0478 64.665C75.792 61.794 75.8773 59.7147 76.3035 58.427C76.3035 58.3214 76.2609 58.2686 76.1757 58.2686L76.6552 56.1154H76.5274L79.7566 47.7242C81.5044 44.7055 82.9538 42.5312 84.1048 41.2012C84.0835 40.9901 84.6909 40.1352 85.9272 38.6364C86.4814 38.1297 87.2487 37.1376 88.2292 35.6599C88.421 35.6599 89.636 34.4355 91.874 31.9867L92.8012 31.4484C92.9931 31.554 93.1316 31.6067 93.2169 31.6067L93.2488 31.9867L90.819 35.1216C89.6466 37.0003 88.7727 38.5836 88.1972 39.8713C88.4104 39.8713 89.0498 39.238 90.1156 37.9714C93.3128 34.7416 96.8191 31.5751 100.634 28.4719C103.128 26.2976 106.006 24.4082 109.267 22.8039C111.42 21.3051 112.901 20.5346 113.711 20.4923C113.711 20.3023 113.615 20.2074 113.423 20.2074C109.949 21.1151 106.155 22.6033 102.041 24.6721C100.166 26.4876 98.9825 27.3953 98.4923 27.3953C98.3644 27.2264 98.2898 27.0892 98.2685 26.9837C98.3538 26.6248 99.281 25.7698 101.05 24.4188C109.15 19.2891 113.903 16.7137 115.31 16.6925C119.423 14.6238 122.194 13.5894 123.623 13.5894C124.795 13.0827 127.171 12.5867 130.752 12.1011C130.838 12.1011 130.891 12.1433 130.912 12.2278C131.701 12.0378 132.788 11.9428 134.173 11.9428H134.461C134.546 11.9428 134.578 11.9006 134.557 11.8161ZM155.627 16.2809C156.927 16.5342 157.598 16.9459 157.641 17.5158L157.705 18.0541L157.065 18.7191C155.211 18.3813 154.273 18.0225 154.252 17.6425L154.188 17.2308C154.593 16.5975 155.073 16.2809 155.627 16.2809Z" stroke="black" stroke-width="2" mask="url(#path-1-outside-1_17_36095)"/>
<defs>
<linearGradient id="paint0_linear_17_36095" x1="80.1722" y1="16.0909" x2="80.1722" y2="113.366" gradientUnits="userSpaceOnUse">
<stop stop-color="#F52D07"/>
<stop offset="1" stop-color="#FFA800"/>
</linearGradient>
<linearGradient id="paint1_linear_17_36095" x1="80.1722" y1="16.0909" x2="80.1722" y2="113.366" gradientUnits="userSpaceOnUse">
<stop stop-color="#F52D07"/>
<stop offset="1" stop-color="#FFA800"/>
</linearGradient>
</defs>
</svg>
